<svg xmlns="http://www.w3.org/2000/svg" viewBox="0 0 24 24" width="24" height="24" color="#1E1E1E"><path class="dd" d="M16.45 7.20L17.33 8.33L17.99 9.52L18.39 10.82L18.52 12.15L18.42 13.47L18.11 14.76L17.64 15.99L16.84 17.06L15.88 17.95L14.75 18.64L13.51 19.10L12.18 19.28L10.84 19.15L9.56 18.76L8.34 18.18L7.25 17.39L6.40 16.35L5.73 15.19L5.34 13.89L5.25 12.55L5.46 11.21L5.93 9.95L6.62 8.80L7.50 7.79L8.51 6.88L9.74 6.18L9.31 5.35L7.94 6.00L6.66 6.89L5.61 8.04L4.77 9.37L4.17 10.85L3.86 12.45L3.89 14.12L4.29 15.75L5.04 17.27L6.15 18.55L7.46 19.60L8.95 20.35L10.57 20.76L12.22 20.85L13.87 20.64L15.45 20.11L16.87 19.22L18.03 18.05L18.88 16.66L19.53 15.20L19.82 13.65L19.83 12.09L19.57 10.54L19.05 9.05L18.25 7.67L17.15 6.58Z" fill="currentColor"/><path class="dd" d="M17.64 10.23L17.53 10.02L17.45 9.72L17.35 9.47L17.30 9.21L17.31 8.93L17.33 8.62L17.32 8.28L17.42 7.95L17.52 7.66L17.54 7.45L17.60 7.39L17.51 7.42L17.48 7.48L17.59 7.40L17.85 7.34L18.15 7.18L18.52 7.11L18.85 6.95L19.16 6.87L19.42 6.85L19.65 6.87L19.90 6.85L20.13 6.97L20.36 7.01L20.86 5.92L20.68 5.78L20.39 5.65L20.01 5.42L19.53 5.31L19.03 5.30L18.54 5.35L18.08 5.38L17.69 5.52L17.32 5.55L16.98 5.67L16.60 5.79L16.22 6.09L15.87 6.48L15.73 6.93L15.62 7.34L15.62 7.76L15.66 8.20L15.63 8.66L15.71 9.15L15.88 9.62L16.09 10.03L16.28 10.36L16.50 10.56L16.56 10.73Z" fill="currentColor"/></svg>
