<svg xmlns="http://www.w3.org/2000/svg" viewBox="0 0 64 64" width="128" height="128" xmlns:c2pa="http://c2pa.org/manifest"><metadata><c2pa:manifest>AAAWgmp1bWIAAAAeanVtZGMycGEAEQAQgAAAqgA4m3EDYzJwYQAAABZcanVtYgAAAEdqdW1kYzJtYQARABCAAACqADibcQN1cm46YzJwYTo0MTU2Y2I0Mi04YzU2LTRiMjYtOWNiMy05MDE0OTY0ZmY2NzEAAAADl2p1bWIAAAApanVtZGMyYXMAEQAQgAAAqgA4m3EDYzJwYS5hc3NlcnRpb25zAAAAALxqdW1iAAAARGp1bWRjYm9yABEAEIAAAKoAOJtxE2MycGEuaW5ncmVkaWVudC52MwAAAAAYYzJzaBem0ZSUDwW+s9nX3POAPXIAAABwY2JvcqNpZGM6Zm9ybWF0bWltYWdlL3N2Zyt4bWxqaW5zdGFuY2VJRHgseG1wOmlpZDoyM2Y4MzZkYS0yYWFhLTRkN2MtOTc5ZS05NGEwZTcyZjkyMGJscmVsYXRpb25zaGlwaHBhcmVudE9mAAAB4mp1bWIAAABBanVtZGNib3IAEQAQgAAAqgA4m3ETYzJwYS5hY3Rpb25zLnYyAAAAABhjMnNoRw4JuAjY3cUWP7kvWdINAQAAAZljYm9yomdhY3Rpb25zgqJmYWN0aW9ua2MycGEub3BlbmVkanBhcmFtZXRlcnOha2luZ3JlZGllbnRzgaJjdXJseC1zZWxmI2p1bWJmPWMycGEuYXNzZXJ0aW9ucy9jMnBhLmluZ3JlZGllbnQudjNkaGFzaFggFq7ylBi8A5P+luVn8z0IU2wwRqLwosNeNZFOPf2OEa6kZmFjdGlvbngdY29tLmFudGhyb3BpYy5jbGF1ZGUucHJvdmlkZWRqcGFyYW1ldGVyc6F4H2NvbS5hbnRocm9waWMub3JpZ2luLWNvbmZpZGVuY2VndW5rbm93bmtkZXNjcmlwdGlvbnhmQ2xhdWRlIHByb3ZpZGVkIHRoaXMgZmlsZSBhdCB0aGUgcmVxdWVzdCBvZiBhIHVzZXIgYW5kIG1heSBoYXZlIGNyZWF0ZWQgb3IgbW9kaWZpZWQgdGhlIGZpbGUgY29udGVudHMubXNvZnR3YXJlQWdlbnShZG5hbWVmQ2xhdWRlcmFsbEFjdGlvbnNJbmNsdWRlZPUAAADIanVtYgAAAEBqdW1kY2JvcgARABCAAACqADibcRNjMnBhLmhhc2guZGF0YQAAAAAYYzJzaAyrtkfGNfY8VsSETMSUXUMAAACAY2JvcqVjYWxnZnNoYTI1NmNwYWRNAAAAAAAAAAAAAAAAAGRoYXNoWCBqE2xZDEq6ZfFIp7O9cpQ923GG5zL7hHFn8SzMw1cEd2RuYW1lbmp1bWJmIG1hbmlmZXN0amV4Y2x1c2lvbnOBomVzdGFydBiUZmxlbmd0aBkeBAAAAj5qdW1iAAAAJ2p1bWRjMmNsABEAEIAAAKoAOJtxA2MycGEuY2xhaW0udjIAAAACD2Nib3KlY2FsZ2ZzaGEyNTZpc2lnbmF0dXJleE1zZWxmI2p1bWJmPS9jMnBhL3VybjpjMnBhOjQxNTZjYjQyLThjNTYtNGIyNi05Y2IzLTkwMTQ5NjRmZjY3MS9jMnBhLnNpZ25hdHVyZWppbnN0YW5jZUlEeCx4bXA6aWlkOjNhODRhMjhhLTQ3NmYtNGI4NC04YzkyLWI3MDBhODdhZjZiMnJjcmVhdGVkX2Fzc2VydGlvbnODomN1cmx4LXNlbGYjanVtYmY9YzJwYS5hc3NlcnRpb25zL2MycGEuaW5ncmVkaWVudC52M2RoYXNoWCAWrvKUGLwDk/6W5WfzPQhTbDBGovCiw141kU49/Y4RrqJjdXJseCpzZWxmI2p1bWJmPWMycGEuYXNzZXJ0aW9ucy9jMnBhLmFjdGlvbnMudjJkaGFzaFggFcOTOWdto3HSB092uCRVyYnZHoREDlFHJ5rjqc9CAtCiY3VybHgpc2VsZiNqdW1iZj1jMnBhLmFzc2VydGlvbnMvYzJwYS5oYXNoLmRhdGFkaGFzaFgg1XJsCMYcd/W8fTNyTIiGEifsdd767YjCf3A31N7aJpx0Y2xhaW1fZ2VuZXJhdG9yX2luZm+jZG5hbWVvQW50aHJvcGljIEZpbGVzZ3ZlcnNpb25lMS4wLjBrc3BlY1ZlcnNpb25lMi40LjAAABA4anVtYgAAAChqdW1kYzJjcwARABCAAACqADibcQNjMnBhLnNpZ25hdHVyZQAAABAIY2JvctKEWQISogEmGCFZAgowggIGMIIBjaADAgECAhRA5aAK7sI50L64g/oGQgU9Z1UTADAKBggqhkjOPQQDAzBJMRcwFQYDVQQKEw5BbnRocm9waWMsIFBCQzEuMCwGA1UEAxMlQW50aHJvcGljIENvbnRlbnQgQ3JlZGVudGlhbHMgUm9vdCBDQTAeFw0yNjA4MDcxODQzNTZaFw0yODA4MDYxOTQzNTZaMEQxFzAVBgNVBAoTDkFudGhyb3BpYywgUEJDMSkwJwYDVQQDEyBBbnRocm9waWMgQ2xhdWRlIENvbnRlbnQgU2lnbmluZzBZMBMGByqGSM49AgEGCCqGSM49AwEHA0IABJh6CmvLUBgFFNU0vUKlOVtE6djd17L5SuwX0LemFisBM3dkd/3cyjxFA3Qo5S46fX0/ihY0VZ7mfb9KF703t5OjWDBWMA4GA1UdDwEB/wQEAwIHgDAVBgNVHSUEDjAMBgorBgEEAYPoXgIBMAwGA1UdEwEB/wQCMAAwHwYDVR0jBBgwFoAUzlHiBIFOZFsj+OPEz5o+nMHXXMIwCgYIKoZIzj0EAwMDZwAwZAIwMXMdFJ4BetLLVY7ORuE9noqbbAZOZn/aArXyTwFAZfKrPzxF2vPoJNf1+UCdg1XGAjBwX1zd9WGqYkqmL5SFqw1QySjr1zJfpJM9+1rdDwSPLMOPOjKuiXjoU/pUUeG9RwmhY3BhZFkNngAAAAAAAAAAAAAAAAAAAAAAAAAAAAAAAAAAAAAAAAAAAAAAAAAAAAAAAAAAAAAAAAAAAAAAAAAAAAAAAAAAAAAAAAAAAAAAAAAAAAAAAAAAAAAAAAAAAAAAAAAAAAAAAAAAAAAAAAAAAAAAAAAAAAAAAAAAAAAAAAAAAAAAAAAAAAAAAAAAAAAAAAAAAAAAAAAAAAAAAAAAAAAAAAAAAAAAAAAAAAAAAAAAAAAAAAAAAAAAAAAAAAAAAAAAAAAAAAAAAAAAAAAAAAAAAAAAAAAAAAAAAAAAAAAAAAAAAAAAAAAAAAAAAAAAAAAAAAAAAAAAAAAAAAAAAAAAAAAAAAAAAAAAAAAAAAAAAAAAAAAAAAAAAAAAAAAAAAAAAAAAAAAAAAAAAAAAAAAAAAAAAAAAAAAAAAAAAAAAAAAAAAAAAAAAAAAAAAAAAAAAAAAAAAAAAAAAAAAAAAAAAAAAAAAAAAAAAAAAAAAAAAAAAAAAAAAAAAAAAAAAAAAAAAAAAAAAAAAAAAAAAAAAAAAAAAAAAAAAAAAAAAAAAAAAAAAAAAAAAAAAAAAAAAAAAAAAAAAAAAAAAAAAAAAAAAAAAAAAAAAAAAAAAAAAAAAAAAAAAAAAAAAAAAAAAAAAAAAAAAAAAAAAAAAAAAAAAAAAAAAAAAAAAAAAAAAAAAAAAAAAAAAAAAAAAAAAAAAAAAAAAAAAAAAAAAAAAAAAAAAAAAAAAAAAAAAAAAAAAAAAAAAAAAAAAAAAAAAAAAAAAAAAAAAAAAAAAAAAAAAAAAAAAAAAAAAAAAAAAAAAAAAAAAAAAAAAAAAAAAAAAAAAAAAAAAAAAAAAAAAAAAAAAAAAAAAAAAAAAAAAAAAAAAAAAAAAAAAAAAAAAAAAAAAAAAAAAAAAAAAAAAAAAAAAAAAAAAAAAAAAAAAAAAAAAAAAAAAAAAAAAAAAAAAAAAAAAAAAAAAAAAAAAAAAAAAAAAAAAAAAAAAAAAAAAAAAAAAAAAAAAAAAAAAAAAAAAAAAAAAAAAAAAAAAAAAAAAAAAAAAAAAAAAAAAAAAAAAAAAAAAAAAAAAAAAAAAAAAAAAAAAAAAAAAAAAAAAAAAAAAAAAAAAAAAAAAAAAAAAAAAAAAAAAAAAAAAAAAAAAAAAAAAAAAAAAAAAAAAAAAAAAAAAAAAAAAAAAAAAAAAAAAAAAAAAAAAAAAAAAAAAAAAAAAAAAAAAAAAAAAAAAAAAAAAAAAAAAAAAAAAAAAAAAAAAAAAAAAAAAAAAAAAAAAAAAAAAAAAAAAAAAAAAAAAAAAAAAAAAAAAAAAAAAAAAAAAAAAAAAAAAAAAAAAAAAAAAAAAAAAAAAAAAAAAAAAAAAAAAAAAAAAAAAAAAAAAAAAAAAAAAAAAAAAAAAAAAAAAAAAAAAAAAAAAAAAAAAAAAAAAAAAAAAAAAAAAAAAAAAAAAAAAAAAAAAAAAAAAAAAAAAAAAAAAAAAAAAAAAAAAAAAAAAAAAAAAAAAAAAAAAAAAAAAAAAAAAAAAAAAAAAAAAAAAAAAAAAAAAAAAAAAAAAAAAAAAAAAAAAAAAAAAAAAAAAAAAAAAAAAAAAAAAAAAAAAAAAAAAAAAAAAAAAAAAAAAAAAAAAAAAAAAAAAAAAAAAAAAAAAAAAAAAAAAAAAAAAAAAAAAAAAAAAAAAAAAAAAAAAAAAAAAAAAAAAAAAAAAAAAAAAAAAAAAAAAAAAAAAAAAAAAAAAAAAAAAAAAAAAAAAAAAAAAAAAAAAAAAAAAAAAAAAAAAAAAAAAAAAAAAAAAAAAAAAAAAAAAAAAAAAAAAAAAAAAAAAAAAAAAAAAAAAAAAAAAAAAAAAAAAAAAAAAAAAAAAAAAAAAAAAAAAAAAAAAAAAAAAAAAAAAAAAAAAAAAAAAAAAAAAAAAAAAAAAAAAAAAAAAAAAAAAAAAAAAAAAAAAAAAAAAAAAAAAAAAAAAAAAAAAAAAAAAAAAAAAAAAAAAAAAAAAAAAAAAAAAAAAAAAAAAAAAAAAAAAAAAAAAAAAAAAAAAAAAAAAAAAAAAAAAAAAAAAAAAAAAAAAAAAAAAAAAAAAAAAAAAAAAAAAAAAAAAAAAAAAAAAAAAAAAAAAAAAAAAAAAAAAAAAAAAAAAAAAAAAAAAAAAAAAAAAAAAAAAAAAAAAAAAAAAAAAAAAAAAAAAAAAAAAAAAAAAAAAAAAAAAAAAAAAAAAAAAAAAAAAAAAAAAAAAAAAAAAAAAAAAAAAAAAAAAAAAAAAAAAAAAAAAAAAAAAAAAAAAAAAAAAAAAAAAAAAAAAAAAAAAAAAAAAAAAAAAAAAAAAAAAAAAAAAAAAAAAAAAAAAAAAAAAAAAAAAAAAAAAAAAAAAAAAAAAAAAAAAAAAAAAAAAAAAAAAAAAAAAAAAAAAAAAAAAAAAAAAAAAAAAAAAAAAAAAAAAAAAAAAAAAAAAAAAAAAAAAAAAAAAAAAAAAAAAAAAAAAAAAAAAAAAAAAAAAAAAAAAAAAAAAAAAAAAAAAAAAAAAAAAAAAAAAAAAAAAAAAAAAAAAAAAAAAAAAAAAAAAAAAAAAAAAAAAAAAAAAAAAAAAAAAAAAAAAAAAAAAAAAAAAAAAAAAAAAAAAAAAAAAAAAAAAAAAAAAAAAAAAAAAAAAAAAAAAAAAAAAAAAAAAAAAAAAAAAAAAAAAAAAAAAAAAAAAAAAAAAAAAAAAAAAAAAAAAAAAAAAAAAAAAAAAAAAAAAAAAAAAAAAAAAAAAAAAAAAAAAAAAAAAAAAAAAAAAAAAAAAAAAAAAAAAAAAAAAAAAAAAAAAAAAAAAAAAAAAAAAAAAAAAAAAAAAAAAAAAAAAAAAAAAAAAAAAAAAAAAAAAAAAAAAAAAAAAAAAAAAAAAAAAAAAAAAAAAAAAAAAAAAAAAAAAAAAAAAAAAAAAAAAAAAAAAAAAAAAAAAAAAAAAAAAAAAAAAAAAAAAAAAAAAAAAAAAAAAAAAAAAAAAAAAAAAAAAAAAAAAAAAAAAAAAAAAAAAAAAAAAAAAAAAAAAAAAAAAAAAAAAAAAAAAAAAAAAAAAAAAAAAAAAAAAAAAAAAAAAAAAAAAAAAAAAAAAAAAAAAAAAAAAAAAAAAAAAAAAAAAAAAAAAAAAAAAAAAAAAAAAAAAAAAAAAAAAAAAAAAAAAAAAAAAAAAAAAAAAAAAAAAAAAAAAAAAAAAAAAAAAAAAAAAAAAAAAAAAAAAAAAAAAAAAAAAAAAAAAAAAAAAAAAAAAAAAAAAAAAAAAAAAAAAAAAAAAAAAAAAAAAAAAAAAAAAAAAAAAAAAAAAAAAAAAAAAAAAAAAAAAAAAAAAAAAAAAAAAAAAAAAAAAAAAAAAAAAAAAAAAAAAAAAAAAAAAAAAAAAAAAAAAAAAAAAAAAAAAAAAAAAAAAAAAAAAAAAAAAAAAAAAAAAAAAAAAAAAAAAAAAAAAAAAAAAAAAAAAAAAAAAAAAAAAAAAAAAAAAAAAAAAAAAAAAAAAAAAAAAAAAAAAAAAAAAAAAAAAAAAAAAAAAAAAAAAAAAAAAAAAAAAAAAAAAAAAAAAAAAAAAAAAAAAAAAAAAAAAAAAAAAAAAAAAAAAAAAAAAAAAAAAAAAAAAAAAAAAAAAAAAAAAAAAAAAAAAAAAAAAAAAAAAAAAAAAAAAAAAAAAAAAAAAAAAAAAAAAAAAAAAAAAAAAAAAAAAAAAAAAAAAAAAAAAAAAAAAAAAAAAAAAAAAAAAAAAAAAAAAAAAAAAAAAAAAAAAAAAAAAAAAAAAAAAAAAAAAAAAAAAAAAAAAAAAAAAAAAAAAAAAAAAAAAAAAAAAAAAAAAAAAAAAAAAAAAAAAAAAAAAAAAAAAAAAAAAAAAAAAAAAAAAAAAAAAAAAAAAAAAAAAAAAAAAAAAAAAAAAAAAAAAAAAAAAAAAAAAAAAAAAAAAAAAAAAAAAAAAAAAAAAAAAAAAAAAAAAAAAAAAAAAAAAAAAAAAAAAAAAAAAAAAAAAAAAAAAAAAAAAAAAAAAAAAAAAAAAAAAAAAAAAAAAAAAAAAAAAAAAAAAAAAAAAAAAAAAAAAAAAAAAAAAAAAAAAAAAAAAAAAAAAAAAAAAAAAAAAAAAAAAAAAAAAAAAAAAAAAAAAAAAAAAAAAAAAAAAAAAAAAAAAAAAAAAAAAAAAAAAAAAAAAAAAAAAAAAAAAAAAAAAAAAAAAAAAAAAAAAAAAAAAAAAAAAAAAAAAAAAAAAAAAAAAAAAAAAAAAAAAAAAAAAAAAAAAAAAAAAAAAAAAAAAAAAAAAAAAAAAAAAAAAAAAAAAAAAAAAAAAAAAAAAAAAAAAAAAAAAAAAAAAAAAAAAAAAAAAAAAAAAAAAAAAAAAAAAAAAAAAAAAAAAAAAAAAAAAAAAAAAAAAAAAAAAAAAAAAAAAAAAAAAAAAAAAAAAAAAAAAAAAAAAAAAAAAAAAAAAAAAAAAAAAAAAAAAAAAAAAAAAAAAAAAAAAAAAAAAAAAAAAAAAAAAAAAAAAAAAAAAAAAAAAAAAAAAAAAAAAAAAAAAAAAAAAAAAAAAAAAAAAAAAAAAAAAAAAAAAAAAAAAAAAAAAAAAAAAAAAAAAAAAAAAAAAAAAAAAAAAAAAAAAAAAAAAAAAAAAAAAAAAAAAAAAAAAAAAAAAAAAAAAAAAAAAAAAAAAAAPZYQM/TU8JP9prE521uTQn8XY5ydVFKKm/M3Udttpqd38qZry5fXdxVwa9eGpgHOYShvDTxZxV0A8tGBumPrJJDkpw=</c2pa:manifest></metadata><path class="dd" d="M11.99 18.49L51.91 19.02L55.23 22.14L55.36 41.89L51.91 44.92L12.10 44.90L8.89 41.84L8.53 22.10L12.88 18.11L12.12 17.28L7.12 21.84L7.19 42.14L11.93 46.78L52.08 46.90L57.24 42.21L56.79 21.86L52.03 17.64L12.01 17.31Z" fill="#F7F7F6"/><path class="dd" d="M12.60 17.86L52.57 17.87L56.48 21.52L56.53 41.49L52.56 45.03L12.65 44.92L8.56 41.50L8.53 21.49L13.60 17.76L13.43 17.53L8.15 21.41L8.04 41.60L12.60 45.51L52.61 45.64L57.11 41.59L56.99 21.43L52.60 17.45L12.60 17.54Z" fill="#F7F7F6" opacity=".55"/><path class="dd" d="M29.57 25.97L31.55 25.58L33.48 25.75L35.29 26.44L36.80 27.66L37.83 29.29L38.44 31.11L38.36 33.03L37.60 34.76L36.46 36.21L34.92 37.17L33.21 37.66L31.46 37.75L29.77 37.28L28.26 36.39L27.00 35.16L26.24 33.54L25.85 31.77L26.17 29.96L26.92 28.26L28.24 26.91L29.92 26.04L31.78 25.63L33.71 25.77L35.53 26.47L36.99 27.78L38.08 29.48L39.11 28.86L37.99 26.93L36.19 25.42L34.06 24.43L31.72 24.11L29.38 24.50L27.28 25.61L25.60 27.31L24.43 29.41L24.12 31.78L24.43 34.14L25.54 36.19L27.09 37.88L29.06 39.00L31.24 39.55L33.51 39.59L35.73 38.90L37.68 37.55L39.21 35.66L39.94 33.34L39.98 30.90L39.30 28.57L37.84 26.66L35.93 25.27L33.75 24.47L31.45 24.38L29.34 24.95Z" fill="#F7F7F6"/><path class="dd" d="M30.07 25.07L32.11 24.81L34.06 25.19L35.77 26.08L37.21 27.31L38.33 28.84L39.03 30.64L39.12 32.60L38.58 34.50L37.41 36.13L35.80 37.30L33.93 38.04L31.91 38.29L29.85 37.97L27.95 37.01L26.48 35.43L25.71 33.42L25.61 31.30L26.14 29.28L27.16 27.51L28.57 26.05L30.36 25.08L32.36 24.72L34.34 25.07L36.06 26.04L37.42 27.41L38.43 29.13L38.71 28.98L37.68 27.21L36.28 25.75L34.47 24.71L32.36 24.30L30.20 24.62L28.28 25.66L26.73 27.18L25.65 29.08L25.07 31.24L25.13 33.54L26.00 35.73L27.58 37.49L29.65 38.57L31.90 38.91L34.08 38.63L36.09 37.83L37.80 36.51L39.06 34.74L39.66 32.66L39.50 30.53L38.73 28.61L37.53 27.01L36.01 25.72L34.18 24.83L32.12 24.46L30.03 24.80Z" fill="#F7F7F6" opacity=".55"/><path class="dd" d="M11.76 22.01L12.12 22.46L12.66 22.66L13.03 22.69L13.48 22.71L14.03 22.45L14.14 22.22L14.02 22.27L14.40 22.61L14.95 22.67L15.28 22.62L15.79 22.63L16.24 22.27L15.76 21.65L15.54 21.80L15.38 21.70L15.05 21.61L14.94 21.58L14.64 21.31L13.86 21.11L13.30 21.46L13.19 21.62L12.97 21.58L12.68 21.72L12.54 21.78L12.24 21.54Z" fill="#F7F7F6"/><path class="dd" d="M12.49 21.05L12.78 21.41L13.11 22.00L13.68 22.23L14.14 21.81L14.42 21.48L14.54 21.46L14.79 21.62L15.14 21.82L15.53 21.93L15.95 21.98L16.37 21.80L16.70 21.42L16.50 21.22L16.17 21.50L15.92 21.53L15.67 21.45L15.39 21.30L15.08 21.12L14.66 20.90L14.11 21.00L13.73 21.44L13.52 21.73L13.42 21.70L13.09 21.18L12.71 20.84Z" fill="#F7F7F6" opacity=".55"/><path class="dd" d="M47.87 42.06L48.20 42.24L48.58 42.42L48.89 42.50L49.11 42.63L49.52 42.85L50.20 42.82L50.70 42.49L50.90 42.26L50.91 42.25L51.15 42.34L51.57 42.39L51.96 42.37L52.04 41.66L51.76 41.57L51.52 41.39L51.09 41.18L50.43 41.25L49.97 41.57L49.80 41.73L49.82 41.70L49.56 41.58L49.11 41.49L48.76 41.50L48.46 41.49L48.13 41.40Z" fill="#F7F7F6"/><path class="dd" d="M48.48 41.39L48.83 41.81L49.25 42.00L49.64 41.96L50.01 41.93L50.45 41.76L50.77 41.43L50.86 41.32L51.04 41.53L51.42 42.06L52.01 42.25L52.42 41.78L52.71 41.32L52.49 41.15L52.12 41.53L51.86 41.81L51.78 41.71L51.50 41.17L51.00 40.74L50.43 40.95L50.09 41.26L49.85 41.41L49.56 41.47L49.28 41.54L49.04 41.52L48.72 41.19Z" fill="#F7F7F6" opacity=".55"/><clipPath id="h1_650645"><path d="M8 18 H20 V46 H8 Z"/></clipPath><g clip-path="url(#h1_650645)"><path d="M-19.63 46.33L-17.06 43.32L-14.17 40.64L-11.31 37.92L-8.27 35.34L-5.55 32.41L-3.03 29.36L-0.12 26.70L2.70 23.92L5.65 21.25L8.27 18.25L7.77 17.80L5.08 20.68L2.13 23.31L-0.78 26.00L-3.72 28.70L-6.32 31.73L-8.99 34.60L-11.95 37.22L-14.78 40.01L-17.61 42.80L-20.16 45.88Z" fill="#C5FF73"/><path d="M-15.84 46.16L-13.00 43.40L-10.22 40.60L-7.23 38.01L-4.23 35.37L-1.59 32.36L1.01 29.39L3.83 26.64L6.66 23.88L9.53 21.16L12.41 18.43L11.97 17.95L9.01 20.58L6.06 23.24L3.21 26.00L0.31 28.72L-2.36 31.68L-4.95 34.65L-7.86 37.30L-10.80 39.98L-13.57 42.83L-16.32 45.68Z" fill="#C5FF73"/><path d="M-11.90 46.09L-9.11 43.31L-6.08 40.76L-3.10 38.10L-0.37 35.21L2.40 32.39L5.12 29.49L7.78 26.56L10.58 23.81L13.56 21.19L16.40 18.41L15.93 17.92L13.05 20.62L9.96 23.13L7.08 25.89L4.43 28.85L1.67 31.69L-1.06 34.55L-3.79 37.41L-6.65 40.11L-9.65 42.73L-12.40 45.61Z" fill="#C5FF73"/><path d="M-7.70 46.30L-4.89 43.52L-1.94 40.87L0.91 38.08L3.53 35.10L6.29 32.28L9.04 29.42L11.76 26.58L14.73 23.96L17.56 21.16L20.34 18.35L19.86 17.86L17.00 20.60L14.15 23.32L11.09 25.87L8.29 28.71L5.60 31.61L2.77 34.40L0.19 37.42L-2.53 40.26L-5.43 42.96L-8.21 45.79Z" fill="#C5FF73"/><path d="M-3.62 46.35L-0.95 43.43L1.84 40.63L4.63 37.82L7.42 35.05L10.44 32.48L13.36 29.74L15.97 26.74L18.63 23.82L21.40 21.00L24.12 18.12L23.64 17.65L20.83 20.43L18.00 23.21L15.26 26.09L12.64 29.05L9.79 31.75L6.76 34.33L3.92 37.13L1.23 40.04L-1.52 42.90L-4.17 45.86Z" fill="#C5FF73"/><path d="M0.37 46.35L3.11 43.50L5.93 40.71L8.57 37.76L11.37 35.00L14.42 32.46L17.26 29.66L20.03 26.83L22.82 24.00L25.41 20.98L28.07 18.04L27.53 17.55L24.82 20.45L22.19 23.41L19.35 26.15L16.57 28.97L13.72 31.69L10.72 34.29L7.89 37.11L5.26 40.08L2.54 42.96L-0.14 45.88Z" fill="#C5FF73"/><path d="M4.17 46.18L7.09 43.51L10.06 40.88L12.93 38.11L15.58 35.14L18.26 32.24L21.05 29.45L23.82 26.61L26.61 23.83L29.54 21.17L32.46 18.48L31.96 17.93L28.99 20.56L25.99 23.18L23.18 25.98L20.37 28.77L17.52 31.53L14.83 34.46L12.24 37.46L9.48 40.26L6.52 42.89L3.70 45.69Z" fill="#C5FF73"/><path d="M8.38 46.38L11.27 43.65L13.87 40.64L16.61 37.82L19.52 35.14L22.39 32.41L25.25 29.65L28.05 26.82L30.61 23.78L33.30 20.92L36.32 18.37L35.86 17.81L32.76 20.34L29.93 23.16L27.32 26.15L24.58 28.97L21.69 31.67L18.82 34.40L15.92 37.11L13.18 40.02L10.66 43.08L7.92 45.92Z" fill="#C5FF73"/><path d="M12.27 46.27L15.13 43.52L17.81 40.59L20.51 37.71L23.45 35.08L26.35 32.36L29.11 29.52L32.05 26.87L34.91 24.11L37.58 21.16L40.29 18.27L39.75 17.76L36.97 20.59L34.30 23.50L31.40 26.17L28.45 28.83L25.62 31.61L22.76 34.33L19.87 37.07L17.20 40.02L14.53 42.94L11.77 45.76Z" fill="#C5FF73"/><path d="M16.44 46.42L19.19 43.57L21.87 40.65L24.67 37.86L27.41 35.03L30.39 32.43L33.35 29.74L35.93 26.71L38.65 23.84L41.36 20.96L44.15 18.16L43.69 17.68L40.76 20.37L38.04 23.25L35.26 26.09L32.63 29.04L29.75 31.71L26.71 34.28L23.96 37.17L21.20 40.02L18.61 43.03L15.94 45.96Z" fill="#C5FF73"/><path d="M20.09 46.09L22.96 43.37L25.87 40.68L28.71 37.93L31.70 35.31L34.52 32.49L37.09 29.45L39.78 26.59L42.64 23.85L45.44 21.05L48.33 18.35L47.87 17.85L44.91 20.49L42.05 23.23L39.12 25.91L36.33 28.77L33.79 31.82L31.02 34.60L28.09 37.27L25.25 40.04L22.40 42.79L19.62 45.62Z" fill="#C5FF73"/></g><path class="dd" d="M29.19 35.05L29.36 33.80L29.43 32.00L29.52 30.26L29.63 29.21L29.75 29.10L30.18 29.13L30.84 29.30L31.40 29.51L31.77 29.70L32.10 29.91L32.32 30.17L32.37 30.37L32.29 30.55L32.05 30.77L31.70 30.95L31.46 31.03L31.00 31.05L30.16 31.01L29.28 31.09L28.73 31.95L29.40 32.78L30.53 33.67L31.70 34.57L32.57 35.09L32.91 34.58L32.14 33.97L31.00 33.10L30.02 32.15L29.60 31.68L29.55 31.93L30.14 31.99L30.97 32.06L31.60 32.04L32.08 31.91L32.64 31.65L33.18 31.18L33.47 30.44L33.27 29.68L32.82 29.13L32.30 28.74L31.77 28.55L31.13 28.33L30.28 28.11L29.36 28.25L28.78 28.96L28.65 30.21L28.68 31.98L28.63 33.75L28.51 34.97Z" fill="#F7F7F6"/><path class="dd" d="M29.38 34.53L29.53 33.30L29.56 31.50L29.61 29.74L29.82 28.61L30.18 28.42L30.69 28.62L31.34 28.97L31.97 29.17L32.47 29.18L32.94 29.29L33.28 29.54L33.37 29.88L33.18 30.22L32.85 30.56L32.48 30.87L32.16 31.06L31.62 31.05L30.84 30.77L29.90 30.48L29.10 31.48L29.90 32.40L31.19 33.14L32.52 33.82L33.40 34.32L33.56 34.03L32.68 33.54L31.36 32.83L30.16 32.07L29.54 31.46L30.05 30.95L30.67 31.23L31.51 31.55L32.26 31.62L32.80 31.34L33.24 31.00L33.68 30.57L33.94 29.93L33.77 29.22L33.20 28.74L32.53 28.59L32.05 28.62L31.54 28.49L30.89 28.15L30.14 27.96L29.42 28.41L29.18 29.70L29.18 31.50L29.18 33.28L29.10 34.50Z" fill="#F7F7F6" opacity=".55"/></svg>