<svg xmlns="http://www.w3.org/2000/svg" viewBox="0 0 64 64" width="128" height="128" xmlns:c2pa="http://c2pa.org/manifest"><metadata><c2pa:manifest>AAAWgmp1bWIAAAAeanVtZGMycGEAEQAQgAAAqgA4m3EDYzJwYQAAABZcanVtYgAAAEdqdW1kYzJtYQARABCAAACqADibcQN1cm46YzJwYTpiNDNkYzFkYy02NmFhLTQ4ZmYtOWI4MS02MTFiODYxNTdkNmIAAAADl2p1bWIAAAApanVtZGMyYXMAEQAQgAAAqgA4m3EDYzJwYS5hc3NlcnRpb25zAAAAALxqdW1iAAAARGp1bWRjYm9yABEAEIAAAKoAOJtxE2MycGEuaW5ncmVkaWVudC52MwAAAAAYYzJzaLf8DjvbEgYQq1L+07DZaiAAAABwY2JvcqNpZGM6Zm9ybWF0bWltYWdlL3N2Zyt4bWxqaW5zdGFuY2VJRHgseG1wOmlpZDozYmY1OWFlMC0xZDBmLTRiNjMtOTdlMi02MzdhOTc4NjE2YmRscmVsYXRpb25zaGlwaHBhcmVudE9mAAAB4mp1bWIAAABBanVtZGNib3IAEQAQgAAAqgA4m3ETYzJwYS5hY3Rpb25zLnYyAAAAABhjMnNoQyOWPb8CQPZs2s3LV3kgrAAAAZljYm9yomdhY3Rpb25zgqJmYWN0aW9ua2MycGEub3BlbmVkanBhcmFtZXRlcnOha2luZ3JlZGllbnRzgaJjdXJseC1zZWxmI2p1bWJmPWMycGEuYXNzZXJ0aW9ucy9jMnBhLmluZ3JlZGllbnQudjNkaGFzaFgg+4scmrb57eckJKnxNE9TSvlelDUETCnn3Wru6qpMtVakZmFjdGlvbngdY29tLmFudGhyb3BpYy5jbGF1ZGUucHJvdmlkZWRqcGFyYW1ldGVyc6F4H2NvbS5hbnRocm9waWMub3JpZ2luLWNvbmZpZGVuY2VndW5rbm93bmtkZXNjcmlwdGlvbnhmQ2xhdWRlIHByb3ZpZGVkIHRoaXMgZmlsZSBhdCB0aGUgcmVxdWVzdCBvZiBhIHVzZXIgYW5kIG1heSBoYXZlIGNyZWF0ZWQgb3IgbW9kaWZpZWQgdGhlIGZpbGUgY29udGVudHMubXNvZnR3YXJlQWdlbnShZG5hbWVmQ2xhdWRlcmFsbEFjdGlvbnNJbmNsdWRlZPUAAADIanVtYgAAAEBqdW1kY2JvcgARABCAAACqADibcRNjMnBhLmhhc2guZGF0YQAAAAAYYzJzaK1TWgTwcIULrhwYsSD+p8IAAACAY2JvcqVjYWxnZnNoYTI1NmNwYWRNAAAAAAAAAAAAAAAAAGRoYXNoWCBKtW92T6ABc0D//GDPwHEbQS5vVgto2jF9uJ9El/nz3mRuYW1lbmp1bWJmIG1hbmlmZXN0amV4Y2x1c2lvbnOBomVzdGFydBiUZmxlbmd0aBkeBAAAAj5qdW1iAAAAJ2p1bWRjMmNsABEAEIAAAKoAOJtxA2MycGEuY2xhaW0udjIAAAACD2Nib3KlY2FsZ2ZzaGEyNTZpc2lnbmF0dXJleE1zZWxmI2p1bWJmPS9jMnBhL3VybjpjMnBhOmI0M2RjMWRjLTY2YWEtNDhmZi05YjgxLTYxMWI4NjE1N2Q2Yi9jMnBhLnNpZ25hdHVyZWppbnN0YW5jZUlEeCx4bXA6aWlkOmEwODc3YzRlLTliMWUtNGY3MS1iMmE0LWVlZWQzZWE1NzQwYXJjcmVhdGVkX2Fzc2VydGlvbnODomN1cmx4LXNlbGYjanVtYmY9YzJwYS5hc3NlcnRpb25zL2MycGEuaW5ncmVkaWVudC52M2RoYXNoWCD7ixyatvnt5yQkqfE0T1NK+V6UNQRMKefdau7qqky1VqJjdXJseCpzZWxmI2p1bWJmPWMycGEuYXNzZXJ0aW9ucy9jMnBhLmFjdGlvbnMudjJkaGFzaFggkbhZzE1MkgKI1xO2iSteBy5Cco9+a4qYYCKBIgY7GpGiY3VybHgpc2VsZiNqdW1iZj1jMnBhLmFzc2VydGlvbnMvYzJwYS5oYXNoLmRhdGFkaGFzaFggLs9574Cw9MWRvPFGDilarNn+YPBc2tmrgAuEwvvYLf10Y2xhaW1fZ2VuZXJhdG9yX2luZm+jZG5hbWVvQW50aHJvcGljIEZpbGVzZ3ZlcnNpb25lMS4wLjBrc3BlY1ZlcnNpb25lMi40LjAAABA4anVtYgAAAChqdW1kYzJjcwARABCAAACqADibcQNjMnBhLnNpZ25hdHVyZQAAABAIY2JvctKEWQISogEmGCFZAgowggIGMIIBjaADAgECAhRA5aAK7sI50L64g/oGQgU9Z1UTADAKBggqhkjOPQQDAzBJMRcwFQYDVQQKEw5BbnRocm9waWMsIFBCQzEuMCwGA1UEAxMlQW50aHJvcGljIENvbnRlbnQgQ3JlZGVudGlhbHMgUm9vdCBDQTAeFw0yNjA4MDcxODQzNTZaFw0yODA4MDYxOTQzNTZaMEQxFzAVBgNVBAoTDkFudGhyb3BpYywgUEJDMSkwJwYDVQQDEyBBbnRocm9waWMgQ2xhdWRlIENvbnRlbnQgU2lnbmluZzBZMBMGByqGSM49AgEGCCqGSM49AwEHA0IABJh6CmvLUBgFFNU0vUKlOVtE6djd17L5SuwX0LemFisBM3dkd/3cyjxFA3Qo5S46fX0/ihY0VZ7mfb9KF703t5OjWDBWMA4GA1UdDwEB/wQEAwIHgDAVBgNVHSUEDjAMBgorBgEEAYPoXgIBMAwGA1UdEwEB/wQCMAAwHwYDVR0jBBgwFoAUzlHiBIFOZFsj+OPEz5o+nMHXXMIwCgYIKoZIzj0EAwMDZwAwZAIwMXMdFJ4BetLLVY7ORuE9noqbbAZOZn/aArXyTwFAZfKrPzxF2vPoJNf1+UCdg1XGAjBwX1zd9WGqYkqmL5SFqw1QySjr1zJfpJM9+1rdDwSPLMOPOjKuiXjoU/pUUeG9RwmhY3BhZFkNngAAAAAAAAAAAAAAAAAAAAAAAAAAAAAAAAAAAAAAAAAAAAAAAAAAAAAAAAAAAAAAAAAAAAAAAAAAAAAAAAAAAAAAAAAAAAAAAAAAAAAAAAAAAAAAAAAAAAAAAAAAAAAAAAAAAAAAAAAAAAAAAAAAAAAAAAAAAAAAAAAAAAAAAAAAAAAAAAAAAAAAAAAAAAAAAAAAAAAAAAAAAAAAAAAAAAAAAAAAAAAAAAAAAAAAAAAAAAAAAAAAAAAAAAAAAAAAAAAAAAAAAAAAAAAAAAAAAAAAAAAAAAAAAAAAAAAAAAAAAAAAAAAAAAAAAAAAAAAAAAAAAAAAAAAAAAAAAAAAAAAAAAAAAAAAAAAAAAAAAAAAAAAAAAAAAAAAAAAAAAAAAAAAAAAAAAAAAAAAAAAAAAAAAAAAAAAAAAAAAAAAAAAAAAAAAAAAAAAAAAAAAAAAAAAAAAAAAAAAAAAAAAAAAAAAAAAAAAAAAAAAAAAAAAAAAAAAAAAAAAAAAAAAAAAAAAAAAAAAAAAAAAAAAAAAAAAAAAAAAAAAAAAAAAAAAAAAAAAAAAAAAAAAAAAAAAAAAAAAAAAAAAAAAAAAAAAAAAAAAAAAAAAAAAAAAAAAAAAAAAAAAAAAAAAAAAAAAAAAAAAAAAAAAAAAAAAAAAAAAAAAAAAAAAAAAAAAAAAAAAAAAAAAAAAAAAAAAAAAAAAAAAAAAAAAAAAAAAAAAAAAAAAAAAAAAAAAAAAAAAAAAAAAAAAAAAAAAAAAAAAAAAAAAAAAAAAAAAAAAAAAAAAAAAAAAAAAAAAAAAAAAAAAAAAAAAAAAAAAAAAAAAAAAAAAAAAAAAAAAAAAAAAAAAAAAAAAAAAAAAAAAAAAAAAAAAAAAAAAAAAAAAAAAAAAAAAAAAAAAAAAAAAAAAAAAAAAAAAAAAAAAAAAAAAAAAAAAAAAAAAAAAAAAAAAAAAAAAAAAAAAAAAAAAAAAAAAAAAAAAAAAAAAAAAAAAAAAAAAAAAAAAAAAAAAAAAAAAAAAAAAAAAAAAAAAAAAAAAAAAAAAAAAAAAAAAAAAAAAAAAAAAAAAAAAAAAAAAAAAAAAAAAAAAAAAAAAAAAAAAAAAAAAAAAAAAAAAAAAAAAAAAAAAAAAAAAAAAAAAAAAAAAAAAAAAAAAAAAAAAAAAAAAAAAAAAAAAAAAAAAAAAAAAAAAAAAAAAAAAAAAAAAAAAAAAAAAAAAAAAAAAAAAAAAAAAAAAAAAAAAAAAAAAAAAAAAAAAAAAAAAAAAAAAAAAAAAAAAAAAAAAAAAAAAAAAAAAAAAAAAAAAAAAAAAAAAAAAAAAAAAAAAAAAAAAAAAAAAAAAAAAAAAAAAAAAAAAAAAAAAAAAAAAAAAAAAAAAAAAAAAAAAAAAAAAAAAAAAAAAAAAAAAAAAAAAAAAAAAAAAAAAAAAAAAAAAAAAAAAAAAAAAAAAAAAAAAAAAAAAAAAAAAAAAAAAAAAAAAAAAAAAAAAAAAAAAAAAAAAAAAAAAAAAAAAAAAAAAAAAAAAAAAAAAAAAAAAAAAAAAAAAAAAAAAAAAAAAAAAAAAAAAAAAAAAAAAAAAAAAAAAAAAAAAAAAAAAAAAAAAAAAAAAAAAAAAAAAAAAAAAAAAAAAAAAAAAAAAAAAAAAAAAAAAAAAAAAAAAAAAAAAAAAAAAAAAAAAAAAAAAAAAAAAAAAAAAAAAAAAAAAAAAAAAAAAAAAAAAAAAAAAAAAAAAAAAAAAAAAAAAAAAAAAAAAAAAAAAAAAAAAAAAAAAAAAAAAAAAAAAAAAAAAAAAAAAAAAAAAAAAAAAAAAAAAAAAAAAAAAAAAAAAAAAAAAAAAAAAAAAAAAAAAAAAAAAAAAAAAAAAAAAAAAAAAAAAAAAAAAAAAAAAAAAAAAAAAAAAAAAAAAAAAAAAAAAAAAAAAAAAAAAAAAAAAAAAAAAAAAAAAAAAAAAAAAAAAAAAAAAAAAAAAAAAAAAAAAAAAAAAAAAAAAAAAAAAAAAAAAAAAAAAAAAAAAAAAAAAAAAAAAAAAAAAAAAAAAAAAAAAAAAAAAAAAAAAAAAAAAAAAAAAAAAAAAAAAAAAAAAAAAAAAAAAAAAAAAAAAAAAAAAAAAAAAAAAAAAAAAAAAAAAAAAAAAAAAAAAAAAAAAAAAAAAAAAAAAAAAAAAAAAAAAAAAAAAAAAAAAAAAAAAAAAAAAAAAAAAAAAAAAAAAAAAAAAAAAAAAAAAAAAAAAAAAAAAAAAAAAAAAAAAAAAAAAAAAAAAAAAAAAAAAAAAAAAAAAAAAAAAAAAAAAAAAAAAAAAAAAAAAAAAAAAAAAAAAAAAAAAAAAAAAAAAAAAAAAAAAAAAAAAAAAAAAAAAAAAAAAAAAAAAAAAAAAAAAAAAAAAAAAAAAAAAAAAAAAAAAAAAAAAAAAAAAAAAAAAAAAAAAAAAAAAAAAAAAAAAAAAAAAAAAAAAAAAAAAAAAAAAAAAAAAAAAAAAAAAAAAAAAAAAAAAAAAAAAAAAAAAAAAAAAAAAAAAAAAAAAAAAAAAAAAAAAAAAAAAAAAAAAAAAAAAAAAAAAAAAAAAAAAAAAAAAAAAAAAAAAAAAAAAAAAAAAAAAAAAAAAAAAAAAAAAAAAAAAAAAAAAAAAAAAAAAAAAAAAAAAAAAAAAAAAAAAAAAAAAAAAAAAAAAAAAAAAAAAAAAAAAAAAAAAAAAAAAAAAAAAAAAAAAAAAAAAAAAAAAAAAAAAAAAAAAAAAAAAAAAAAAAAAAAAAAAAAAAAAAAAAAAAAAAAAAAAAAAAAAAAAAAAAAAAAAAAAAAAAAAAAAAAAAAAAAAAAAAAAAAAAAAAAAAAAAAAAAAAAAAAAAAAAAAAAAAAAAAAAAAAAAAAAAAAAAAAAAAAAAAAAAAAAAAAAAAAAAAAAAAAAAAAAAAAAAAAAAAAAAAAAAAAAAAAAAAAAAAAAAAAAAAAAAAAAAAAAAAAAAAAAAAAAAAAAAAAAAAAAAAAAAAAAAAAAAAAAAAAAAAAAAAAAAAAAAAAAAAAAAAAAAAAAAAAAAAAAAAAAAAAAAAAAAAAAAAAAAAAAAAAAAAAAAAAAAAAAAAAAAAAAAAAAAAAAAAAAAAAAAAAAAAAAAAAAAAAAAAAAAAAAAAAAAAAAAAAAAAAAAAAAAAAAAAAAAAAAAAAAAAAAAAAAAAAAAAAAAAAAAAAAAAAAAAAAAAAAAAAAAAAAAAAAAAAAAAAAAAAAAAAAAAAAAAAAAAAAAAAAAAAAAAAAAAAAAAAAAAAAAAAAAAAAAAAAAAAAAAAAAAAAAAAAAAAAAAAAAAAAAAAAAAAAAAAAAAAAAAAAAAAAAAAAAAAAAAAAAAAAAAAAAAAAAAAAAAAAAAAAAAAAAAAAAAAAAAAAAAAAAAAAAAAAAAAAAAAAAAAAAAAAAAAAAAAAAAAAAAAAAAAAAAAAAAAAAAAAAAAAAAAAAAAAAAAAAAAAAAAAAAAAAAAAAAAAAAAAAAAAAAAAAAAAAAAAAAAAAAAAAAAAAAAAAAAAAAAAAAAAAAAAAAAAAAAAAAAAAAAAAAAAAAAAAAAAAAAAAAAAAAAAAAAAAAAAAAAAAAAAAAAAAAAAAAAAAAAAAAAAAAAAAAAAAAAAAAAAAAAAAAAAAAAAAAAAAAAAAAAAAAAAAAAAAAAAAAAAAAAAAAAAAAAAAAAAAAAAAAAAAAAAAAAAAAAAAAAAAAAAAAAAAAAAAAAAAAAAAAAAAAAAAAAAAAAAAAAAAAAAAAAAAAAAAAAAAAAAAAAAAAAAAAAAAAAAAAAAAAAAAAAAAAAAAAAAAAAAAAAAAAAAAAAAAAAAAAAAAAAAAAAAAAAAAAAAAAAAAAAAAAAAAAAAAAAAAAAAAAAAAAAAAAAAAAAAAAAAAAAAAAAAAAAAAAAAAAAAAAAAAAAAAAAAAAAAAAAAAAAAAAAAAAAAAAAAAAAAAAAAAAAAAAAAAAAAAAAAAAAAAAAAAAAAAAAAAAAAAAAAAAAAAAAAAAAAAAAAAAAAAAAAAAAAAAAAAAAAAAAAAAAAAAAAAAAAAAAAAAAAAAAAAAAAAAAAAAAAAAAAAAAAAAAAAAAAAAAAAAAAAAAAAAAAAAAAAAAAAAAAAAAAAAAAAAAAAAAAAAAAAAAAAAAAAAAAAAAAAAAAAAAAAAAAAAAAAAAAAAAAAAAAAAAAAAAAAAAAAAAAAAAAAAAAAAAAAAAAAAAAAAAAAAAAAAAAAAAAAAAAAAAAAAAAAAAAAAAAAAAAAAAAAAAAAAAAAAAAAAAAAAAAAAAAAAAAAAAAAAAAAAAAAAAAAAAAAAAAAAAAAAAAAAAAAAAAAAAAAAAAAAAAAAAAAAAAAAAAAAAAAAAAAAAAAAAAAAAAAAAAAAAAAAAAAAAAAAAAAAAAAAAAAAAAAAAAAAAAAAAAAAAAAAAAAAAAAAAAAAAAAAAAAAAAAAAAAAAAAAAAAAAAAAAAAAAAAAAAAAAAAAAAAAAAAAAAAAAAAAAAAAAAAAAAAAAAAAAAAAAAAAAAAAAAAAAAAAAAAAAAAAAAAAAAAAAAAAAAAAAAAAAAAAAAAAAAAAAAAAAAAAAAAAAAAAAAAAAAAAAAAAAAAAAAAAAAAAAAAAAAAAAAAAAAAAAAAAAAAAAAAAAAAAAAAAAAAAAAAAAAAAAAAAAAAAAPZYQJt/DOoE5iwHu8jLUBzRDyti2P6/P8DbVcAUjI0OXbt4/juBYRg9zHLYh812dK0beUPbOkAjpuQQvj8MWZji7YA=</c2pa:manifest></metadata><path class="dd" d="M31.33 7.98L31.22 9.60L31.06 11.90L30.77 14.68L30.59 17.73L30.62 20.86L30.97 23.87L31.78 26.58L33.20 28.85L35.65 30.33L38.89 31.27L42.59 31.84L46.43 32.12L50.04 32.31L53.06 32.39L55.04 32.62L55.03 32.02L55.01 31.45L53.04 31.67L50.04 31.93L46.43 32.10L42.61 32.39L38.93 32.98L35.76 33.93L33.32 35.32L31.97 37.69L31.24 40.68L30.88 44.05L30.91 47.52L31.09 50.78L31.24 53.50L31.44 55.24L32.00 55.28L32.56 55.19L32.61 53.47L32.75 50.76L32.90 47.51L32.85 44.06L32.62 40.71L31.91 37.75L30.56 35.47L28.24 33.97L25.09 32.97L21.41 32.35L17.59 31.95L13.98 31.66L10.98 31.48L8.98 31.22L9.12 32.01L8.96 32.74L10.97 32.47L13.97 32.31L17.58 32.06L21.41 31.70L25.10 31.15L28.29 30.16L30.63 28.66L32.05 26.50L32.88 23.84L33.20 20.86L33.30 17.75L33.13 14.70L33.03 11.91L32.80 9.63L32.86 8.00L31.29 8.00L31.34 9.67L31.38 12.01L31.62 14.77L31.64 17.75L31.60 20.74L31.22 23.51L30.59 25.85L29.53 27.51L27.63 28.62L24.72 29.42L21.20 30.02L17.45 30.37L13.87 30.58L10.82 30.80L8.72 31.00L7.42 31.99L8.69 33.07L10.81 33.31L13.85 33.56L17.43 33.78L21.17 34.16L24.67 34.77L27.52 35.61L29.26 36.72L30.14 38.41L30.72 40.99L31.02 44.14L30.99 47.48L30.88 50.67L30.71 53.38L30.63 55.42L32.00 57.24L33.24 55.38L33.20 53.36L32.95 50.66L32.82 47.48L32.85 44.13L33.06 40.97L33.69 38.36L34.71 36.71L36.44 35.58L39.32 34.81L42.83 34.30L46.57 33.92L50.15 33.67L53.21 33.55L55.41 33.26L56.83 31.98L55.35 30.80L53.17 30.65L50.12 30.47L46.54 30.34L42.79 30.04L39.24 29.57L36.29 28.79L34.35 27.63L33.20 25.94L32.55 23.56L32.27 20.76L32.25 17.77L32.39 14.79L32.56 12.03L32.80 9.70L32.78 8.02Z" fill="#C5FF73"/><path class="dd" d="M32.71 7.50L32.79 9.16L32.67 11.48L32.53 14.25L32.42 17.25L32.46 20.28L32.80 23.12L33.48 25.58L34.64 27.45L36.70 28.74L39.72 29.65L43.31 30.23L47.09 30.62L50.68 30.87L53.71 31.07L55.77 31.33L56.34 31.50L55.77 31.63L53.70 31.82L50.68 31.96L47.08 32.13L43.27 32.42L39.64 32.95L36.51 33.79L34.23 35.12L32.87 37.30L32.09 40.21L31.73 43.55L31.70 47.01L31.81 50.26L31.98 52.97L32.07 54.85L32.60 55.48L33.04 54.82L33.06 52.95L33.13 50.24L33.16 46.99L33.01 43.57L32.60 40.29L31.80 37.50L30.53 35.56L28.44 34.38L25.43 33.59L21.85 33.08L18.08 32.78L14.49 32.56L11.46 32.36L9.37 32.07L8.50 31.51L9.38 31.10L11.47 30.97L14.51 30.91L18.12 30.82L21.93 30.60L25.58 30.13L28.72 29.28L31.04 27.97L32.41 25.90L33.20 23.29L33.55 20.34L33.61 17.25L33.45 14.21L33.21 11.44L33.03 9.13L32.96 7.50L32.69 7.51L32.72 9.15L32.91 11.46L33.12 14.23L33.24 17.25L33.20 20.31L32.83 23.21L32.06 25.73L30.74 27.64L28.57 28.91L25.49 29.67L21.88 30.12L18.10 30.34L14.50 30.44L11.45 30.49L9.27 30.63L8.00 31.49L9.21 32.55L11.41 32.88L14.46 33.11L18.04 33.32L21.78 33.66L25.31 34.17L28.22 34.93L30.13 35.99L31.26 37.74L32.02 40.40L32.41 43.62L32.54 47.01L32.51 50.23L32.44 52.94L32.44 54.78L32.60 54.90L32.66 54.76L32.55 52.94L32.38 50.23L32.27 47.00L32.35 43.59L32.68 40.31L33.39 37.51L34.63 35.54L36.72 34.31L39.75 33.49L43.34 32.99L47.11 32.69L50.70 32.52L53.74 32.36L55.87 32.13L56.88 31.50L55.89 30.83L53.75 30.57L50.72 30.37L47.13 30.15L43.36 29.81L39.81 29.23L36.86 28.37L34.93 27.16L33.84 25.43L33.15 23.06L32.85 20.25L32.77 17.25L32.86 14.26L33.01 11.50L33.08 9.16L33.02 7.49Z" fill="#F7F7F6" opacity=".55"/><path class="dd" d="M51.32 10.09L51.44 10.79L51.59 11.41L51.56 12.05L51.62 12.77L51.72 13.25L51.46 13.78L51.23 14.59L51.28 15.34L51.26 15.99L51.33 16.78L51.75 17.48L51.96 18.09L52.66 17.91L52.52 17.19L52.30 16.55L52.37 16.01L52.42 15.32L52.35 14.74L52.59 14.22L52.90 13.41L52.79 12.56L52.57 11.95L52.54 11.25L52.23 10.55L51.98 9.91Z" fill="#F7F7F6"/><path class="dd" d="M52.47 9.52L52.51 10.23L52.86 10.90L52.85 11.44L52.47 12.07L52.32 12.81L52.34 13.43L52.05 14.05L51.75 14.83L52.04 15.58L52.27 16.19L52.25 16.86L52.51 17.55L52.81 17.45L52.64 16.81L52.74 16.14L52.54 15.42L52.34 14.84L52.57 14.28L52.95 13.57L52.94 12.85L53.01 12.26L53.35 11.56L53.28 10.77L52.89 10.10L52.78 9.48Z" fill="#F7F7F6" opacity=".55"/><path class="dd" d="M47.94 14.06L48.57 14.18L49.24 14.45L49.95 14.59L50.60 14.68L51.33 14.81L52.18 14.69L52.87 14.37L53.31 14.21L53.84 14.37L54.58 14.54L55.31 14.57L55.98 14.53L56.02 13.78L55.35 13.69L54.75 13.66L54.16 13.38L53.36 13.11L52.46 13.25L51.82 13.60L51.34 13.68L50.73 13.58L50.05 13.57L49.43 13.57L48.76 13.39L48.06 13.30Z" fill="#F7F7F6"/><path class="dd" d="M48.64 14.08L49.33 13.91L50.00 13.66L50.64 13.56L51.27 13.53L51.84 13.57L52.46 13.94L53.27 14.30L54.10 13.93L54.71 13.30L55.20 13.23L55.83 13.68L56.53 14.00L56.67 13.71L56.03 13.37L55.34 12.81L54.49 12.87L53.77 13.46L53.27 13.71L52.74 13.43L52.02 13.03L51.26 12.95L50.56 13.07L49.86 13.21L49.20 13.56L48.56 13.80Z" fill="#F7F7F6" opacity=".55"/></svg>