<svg xmlns="http://www.w3.org/2000/svg" viewBox="15 10 370 100" width="740" height="200" xmlns:c2pa="http://c2pa.org/manifest"><metadata><c2pa:manifest>AAAWgmp1bWIAAAAeanVtZGMycGEAEQAQgAAAqgA4m3EDYzJwYQAAABZcanVtYgAAAEdqdW1kYzJtYQARABCAAACqADibcQN1cm46YzJwYTo0YTQ0M2RmOC0zZjIxLTRjMjAtYWVjOS1lOTRmYzY3ZDcwN2QAAAADl2p1bWIAAAApanVtZGMyYXMAEQAQgAAAqgA4m3EDYzJwYS5hc3NlcnRpb25zAAAAALxqdW1iAAAARGp1bWRjYm9yABEAEIAAAKoAOJtxE2MycGEuaW5ncmVkaWVudC52MwAAAAAYYzJzaNGiHP76zrlJWxAg7CkMPXcAAABwY2JvcqNpZGM6Zm9ybWF0bWltYWdlL3N2Zyt4bWxqaW5zdGFuY2VJRHgseG1wOmlpZDpjNWU5N2ZjYy0yYjUwLTRjMDktOTUzYS1iMTUwYTYzOTQzNWRscmVsYXRpb25zaGlwaHBhcmVudE9mAAAB4mp1bWIAAABBanVtZGNib3IAEQAQgAAAqgA4m3ETYzJwYS5hY3Rpb25zLnYyAAAAABhjMnNoAp2orqZXkipP+SIA2136mAAAAZljYm9yomdhY3Rpb25zgqJmYWN0aW9ua2MycGEub3BlbmVkanBhcmFtZXRlcnOha2luZ3JlZGllbnRzgaJjdXJseC1zZWxmI2p1bWJmPWMycGEuYXNzZXJ0aW9ucy9jMnBhLmluZ3JlZGllbnQudjNkaGFzaFggBQXFtnXwuJYj36fLsGHm0kTZW+C3jzJ2+LZ8klrXRZOkZmFjdGlvbngdY29tLmFudGhyb3BpYy5jbGF1ZGUucHJvdmlkZWRqcGFyYW1ldGVyc6F4H2NvbS5hbnRocm9waWMub3JpZ2luLWNvbmZpZGVuY2VndW5rbm93bmtkZXNjcmlwdGlvbnhmQ2xhdWRlIHByb3ZpZGVkIHRoaXMgZmlsZSBhdCB0aGUgcmVxdWVzdCBvZiBhIHVzZXIgYW5kIG1heSBoYXZlIGNyZWF0ZWQgb3IgbW9kaWZpZWQgdGhlIGZpbGUgY29udGVudHMubXNvZnR3YXJlQWdlbnShZG5hbWVmQ2xhdWRlcmFsbEFjdGlvbnNJbmNsdWRlZPUAAADIanVtYgAAAEBqdW1kY2JvcgARABCAAACqADibcRNjMnBhLmhhc2guZGF0YQAAAAAYYzJzaNF63YDFZQjH9cU78mSN6rEAAACAY2JvcqVjYWxnZnNoYTI1NmNwYWRNAAAAAAAAAAAAAAAAAGRoYXNoWCBc6KheKkvEukjT+7TdO4wHc4I0TelRsht1MCWweeZcaGRuYW1lbmp1bWJmIG1hbmlmZXN0amV4Y2x1c2lvbnOBomVzdGFydBiYZmxlbmd0aBkeBAAAAj5qdW1iAAAAJ2p1bWRjMmNsABEAEIAAAKoAOJtxA2MycGEuY2xhaW0udjIAAAACD2Nib3KlY2FsZ2ZzaGEyNTZpc2lnbmF0dXJleE1zZWxmI2p1bWJmPS9jMnBhL3VybjpjMnBhOjRhNDQzZGY4LTNmMjEtNGMyMC1hZWM5LWU5NGZjNjdkNzA3ZC9jMnBhLnNpZ25hdHVyZWppbnN0YW5jZUlEeCx4bXA6aWlkOjRhZTE0ZmIyLWNjMjgtNGEyYi1hYjU1LWVkZDYzNDU2YjFlYnJjcmVhdGVkX2Fzc2VydGlvbnODomN1cmx4LXNlbGYjanVtYmY9YzJwYS5hc3NlcnRpb25zL2MycGEuaW5ncmVkaWVudC52M2RoYXNoWCAFBcW2dfC4liPfp8uwYebSRNlb4LePMnb4tnySWtdFk6JjdXJseCpzZWxmI2p1bWJmPWMycGEuYXNzZXJ0aW9ucy9jMnBhLmFjdGlvbnMudjJkaGFzaFggKxt1Eer2vzMxVoHSOLhJTuSsNwTmZHQmFkmGXe8KxeeiY3VybHgpc2VsZiNqdW1iZj1jMnBhLmFzc2VydGlvbnMvYzJwYS5oYXNoLmRhdGFkaGFzaFgg9nKTLt08LzwmUOG2WqWNEZEjj9H+T3AGfMHHlTYPgfd0Y2xhaW1fZ2VuZXJhdG9yX2luZm+jZG5hbWVvQW50aHJvcGljIEZpbGVzZ3ZlcnNpb25lMS4wLjBrc3BlY1ZlcnNpb25lMi40LjAAABA4anVtYgAAAChqdW1kYzJjcwARABCAAACqADibcQNjMnBhLnNpZ25hdHVyZQAAABAIY2JvctKEWQISogEmGCFZAgowggIGMIIBjaADAgECAhRA5aAK7sI50L64g/oGQgU9Z1UTADAKBggqhkjOPQQDAzBJMRcwFQYDVQQKEw5BbnRocm9waWMsIFBCQzEuMCwGA1UEAxMlQW50aHJvcGljIENvbnRlbnQgQ3JlZGVudGlhbHMgUm9vdCBDQTAeFw0yNjA4MDcxODQzNTZaFw0yODA4MDYxOTQzNTZaMEQxFzAVBgNVBAoTDkFudGhyb3BpYywgUEJDMSkwJwYDVQQDEyBBbnRocm9waWMgQ2xhdWRlIENvbnRlbnQgU2lnbmluZzBZMBMGByqGSM49AgEGCCqGSM49AwEHA0IABJh6CmvLUBgFFNU0vUKlOVtE6djd17L5SuwX0LemFisBM3dkd/3cyjxFA3Qo5S46fX0/ihY0VZ7mfb9KF703t5OjWDBWMA4GA1UdDwEB/wQEAwIHgDAVBgNVHSUEDjAMBgorBgEEAYPoXgIBMAwGA1UdEwEB/wQCMAAwHwYDVR0jBBgwFoAUzlHiBIFOZFsj+OPEz5o+nMHXXMIwCgYIKoZIzj0EAwMDZwAwZAIwMXMdFJ4BetLLVY7ORuE9noqbbAZOZn/aArXyTwFAZfKrPzxF2vPoJNf1+UCdg1XGAjBwX1zd9WGqYkqmL5SFqw1QySjr1zJfpJM9+1rdDwSPLMOPOjKuiXjoU/pUUeG9RwmhY3BhZFkNngAAAAAAAAAAAAAAAAAAAAAAAAAAAAAAAAAAAAAAAAAAAAAAAAAAAAAAAAAAAAAAAAAAAAAAAAAAAAAAAAAAAAAAAAAAAAAAAAAAAAAAAAAAAAAAAAAAAAAAAAAAAAAAAAAAAAAAAAAAAAAAAAAAAAAAAAAAAAAAAAAAAAAAAAAAAAAAAAAAAAAAAAAAAAAAAAAAAAAAAAAAAAAAAAAAAAAAAAAAAAAAAAAAAAAAAAAAAAAAAAAAAAAAAAAAAAAAAAAAAAAAAAAAAAAAAAAAAAAAAAAAAAAAAAAAAAAAAAAAAAAAAAAAAAAAAAAAAAAAAAAAAAAAAAAAAAAAAAAAAAAAAAAAAAAAAAAAAAAAAAAAAAAAAAAAAAAAAAAAAAAAAAAAAAAAAAAAAAAAAAAAAAAAAAAAAAAAAAAAAAAAAAAAAAAAAAAAAAAAAAAAAAAAAAAAAAAAAAAAAAAAAAAAAAAAAAAAAAAAAAAAAAAAAAAAAAAAAAAAAAAAAAAAAAAAAAAAAAAAAAAAAAAAAAAAAAAAAAAAAAAAAAAAAAAAAAAAAAAAAAAAAAAAAAAAAAAAAAAAAAAAAAAAAAAAAAAAAAAAAAAAAAAAAAAAAAAAAAAAAAAAAAAAAAAAAAAAAAAAAAAAAAAAAAAAAAAAAAAAAAAAAAAAAAAAAAAAAAAAAAAAAAAAAAAAAAAAAAAAAAAAAAAAAAAAAAAAAAAAAAAAAAAAAAAAAAAAAAAAAAAAAAAAAAAAAAAAAAAAAAAAAAAAAAAAAAAAAAAAAAAAAAAAAAAAAAAAAAAAAAAAAAAAAAAAAAAAAAAAAAAAAAAAAAAAAAAAAAAAAAAAAAAAAAAAAAAAAAAAAAAAAAAAAAAAAAAAAAAAAAAAAAAAAAAAAAAAAAAAAAAAAAAAAAAAAAAAAAAAAAAAAAAAAAAAAAAAAAAAAAAAAAAAAAAAAAAAAAAAAAAAAAAAAAAAAAAAAAAAAAAAAAAAAAAAAAAAAAAAAAAAAAAAAAAAAAAAAAAAAAAAAAAAAAAAAAAAAAAAAAAAAAAAAAAAAAAAAAAAAAAAAAAAAAAAAAAAAAAAAAAAAAAAAAAAAAAAAAAAAAAAAAAAAAAAAAAAAAAAAAAAAAAAAAAAAAAAAAAAAAAAAAAAAAAAAAAAAAAAAAAAAAAAAAAAAAAAAAAAAAAAAAAAAAAAAAAAAAAAAAAAAAAAAAAAAAAAAAAAAAAAAAAAAAAAAAAAAAAAAAAAAAAAAAAAAAAAAAAAAAAAAAAAAAAAAAAAAAAAAAAAAAAAAAAAAAAAAAAAAAAAAAAAAAAAAAAAAAAAAAAAAAAAAAAAAAAAAAAAAAAAAAAAAAAAAAAAAAAAAAAAAAAAAAAAAAAAAAAAAAAAAAAAAAAAAAAAAAAAAAAAAAAAAAAAAAAAAAAAAAAAAAAAAAAAAAAAAAAAAAAAAAAAAAAAAAAAAAAAAAAAAAAAAAAAAAAAAAAAAAAAAAAAAAAAAAAAAAAAAAAAAAAAAAAAAAAAAAAAAAAAAAAAAAAAAAAAAAAAAAAAAAAAAAAAAAAAAAAAAAAAAAAAAAAAAAAAAAAAAAAAAAAAAAAAAAAAAAAAAAAAAAAAAAAAAAAAAAAAAAAAAAAAAAAAAAAAAAAAAAAAAAAAAAAAAAAAAAAAAAAAAAAAAAAAAAAAAAAAAAAAAAAAAAAAAAAAAAAAAAAAAAAAAAAAAAAAAAAAAAAAAAAAAAAAAAAAAAAAAAAAAAAAAAAAAAAAAAAAAAAAAAAAAAAAAAAAAAAAAAAAAAAAAAAAAAAAAAAAAAAAAAAAAAAAAAAAAAAAAAAAAAAAAAAAAAAAAAAAAAAAAAAAAAAAAAAAAAAAAAAAAAAAAAAAAAAAAAAAAAAAAAAAAAAAAAAAAAAAAAAAAAAAAAAAAAAAAAAAAAAAAAAAAAAAAAAAAAAAAAAAAAAAAAAAAAAAAAAAAAAAAAAAAAAAAAAAAAAAAAAAAAAAAAAAAAAAAAAAAAAAAAAAAAAAAAAAAAAAAAAAAAAAAAAAAAAAAAAAAAAAAAAAAAAAAAAAAAAAAAAAAAAAAAAAAAAAAAAAAAAAAAAAAAAAAAAAAAAAAAAAAAAAAAAAAAAAAAAAAAAAAAAAAAAAAAAAAAAAAAAAAAAAAAAAAAAAAAAAAAAAAAAAAAAAAAAAAAAAAAAAAAAAAAAAAAAAAAAAAAAAAAAAAAAAAAAAAAAAAAAAAAAAAAAAAAAAAAAAAAAAAAAAAAAAAAAAAAAAAAAAAAAAAAAAAAAAAAAAAAAAAAAAAAAAAAAAAAAAAAAAAAAAAAAAAAAAAAAAAAAAAAAAAAAAAAAAAAAAAAAAAAAAAAAAAAAAAAAAAAAAAAAAAAAAAAAAAAAAAAAAAAAAAAAAAAAAAAAAAAAAAAAAAAAAAAAAAAAAAAAAAAAAAAAAAAAAAAAAAAAAAAAAAAAAAAAAAAAAAAAAAAAAAAAAAAAAAAAAAAAAAAAAAAAAAAAAAAAAAAAAAAAAAAAAAAAAAAAAAAAAAAAAAAAAAAAAAAAAAAAAAAAAAAAAAAAAAAAAAAAAAAAAAAAAAAAAAAAAAAAAAAAAAAAAAAAAAAAAAAAAAAAAAAAAAAAAAAAAAAAAAAAAAAAAAAAAAAAAAAAAAAAAAAAAAAAAAAAAAAAAAAAAAAAAAAAAAAAAAAAAAAAAAAAAAAAAAAAAAAAAAAAAAAAAAAAAAAAAAAAAAAAAAAAAAAAAAAAAAAAAAAAAAAAAAAAAAAAAAAAAAAAAAAAAAAAAAAAAAAAAAAAAAAAAAAAAAAAAAAAAAAAAAAAAAAAAAAAAAAAAAAAAAAAAAAAAAAAAAAAAAAAAAAAAAAAAAAAAAAAAAAAAAAAAAAAAAAAAAAAAAAAAAAAAAAAAAAAAAAAAAAAAAAAAAAAAAAAAAAAAAAAAAAAAAAAAAAAAAAAAAAAAAAAAAAAAAAAAAAAAAAAAAAAAAAAAAAAAAAAAAAAAAAAAAAAAAAAAAAAAAAAAAAAAAAAAAAAAAAAAAAAAAAAAAAAAAAAAAAAAAAAAAAAAAAAAAAAAAAAAAAAAAAAAAAAAAAAAAAAAAAAAAAAAAAAAAAAAAAAAAAAAAAAAAAAAAAAAAAAAAAAAAAAAAAAAAAAAAAAAAAAAAAAAAAAAAAAAAAAAAAAAAAAAAAAAAAAAAAAAAAAAAAAAAAAAAAAAAAAAAAAAAAAAAAAAAAAAAAAAAAAAAAAAAAAAAAAAAAAAAAAAAAAAAAAAAAAAAAAAAAAAAAAAAAAAAAAAAAAAAAAAAAAAAAAAAAAAAAAAAAAAAAAAAAAAAAAAAAAAAAAAAAAAAAAAAAAAAAAAAAAAAAAAAAAAAAAAAAAAAAAAAAAAAAAAAAAAAAAAAAAAAAAAAAAAAAAAAAAAAAAAAAAAAAAAAAAAAAAAAAAAAAAAAAAAAAAAAAAAAAAAAAAAAAAAAAAAAAAAAAAAAAAAAAAAAAAAAAAAAAAAAAAAAAAAAAAAAAAAAAAAAAAAAAAAAAAAAAAAAAAAAAAAAAAAAAAAAAAAAAAAAAAAAAAAAAAAAAAAAAAAAAAAAAAAAAAAAAAAAAAAAAAAAAAAAAAAAAAAAAAAAAAAAAAAAAAAAAAAAAAAAAAAAAAAAAAAAAAAAAAAAAAAAAAAAAAAAAAAAAAAAAAAAAAAAAAAAAAAAAAAAAAAAAAAAAAAAAAAAAAAAAAAAAAAAAAAAAAAAAAAAAAAAAAAAAAAAAAAAAAAAAAAAAAAAAAAAAAAAAAAAAAAAAAAAAAAAAAAAAAAAAAAAAAAAAAAAAAAAAAAAAAAAAAAAAAAAAAAAAAAAAAAAAAAAAAAAAAAAAAAAAAAAAAAAAAAAAAAAAAAAAAAAAAAAAAAAAAAAAAAAAAAAAAAAAAAAAAAAAAAAAAAAAAAAAAAAAAAAAAAAAAAAAAAAAAAAAAAAAAAAAAAAAAAAAAAAAAAAAAAAAAAAAAAAAAAAAAAAAAAAAAAAAAAAAAAAAAAAAAAAAAAAAAAAAAAAAAAAAAAAAAAAAAAAAAAAAAAAAAAAAAAAAAAAAAAAAAAAAAAAAAAAAAAAAAAAAAAAAAAAAAAAAAAAAAAAAAAAAAAAAAAAAAAAAAAAAAAAAAAAAAAAAAAAAAAAAAAAAAAAAAAAAAAAAAAAAAAAAAAAAAAAAAAAAAAAAAAAAAAAAAAAAAAAAAAAAAAAAAAAAAAAAAAAAAAAAAAAAAAAAAAAAAAAAAAAAAAAAAAAAAAAAAAAAAAAAAAAAAAAAAAAAAAAAAAAAAAAAAAAAAAAAAAAAAAAAAAAAAAAAAAAAAAAAAAAAAAAAAAAAAAAAAAAAAAAAAAAAAAAAAAAAAAAAAAAAAAAAAAAAAAAAAAAAAAAAAAAAAAAAAAAAAAAAAAAAAAAAAAAAAAAAAAAAAAAAAAAAAAAAAAAAAAAAAAAAAAAAAAAAAAAAAAAAAAAAAAAAAAAAAAAAAAAAAAAAAAAAAAAAAAAAAAAAAAAAAAAAAAAAAAAAAAAAAAAAAAAAAAAAAAAAAAAAAAAAAAAAAAAAAAAAAAAAAAAAAAAAAAAAAAAAAAAAAAAAAAAAAAAAAAAAAAAAAAAAAAAAAAAAAAAAAAAAAAAAAAAAAAAAAAAAAAAAAAAAAAAAAAAPZYQHTn6uPnzAHKbu33QnuRP9mXiXhx4PXf4EWZcdYah05+dPdVzjKNXZeF1zg5W6X58pD9vc4Vd0ob7ZMgc7VALdI=</c2pa:manifest></metadata><defs><clipPath id="f"><path d="M30 19 L64 19.5 L85 26 L87.5 40 L79 55 L92 64 L94 80 L86 96 L66 101 L30 101 L26 95 L26 25 L30.5 19Z M41 32 L62 32 L71 37 L71 45 L62 50 L41 50 L41 32Z M41 63 L66 63 L77 68 L77 80 L66 86 L41 86 L41 63Z" clip-rule="evenodd"/></clipPath></defs><g class="sk-hatch" clip-path="url(#f)" transform="translate(3.5 3.5)"><path d="M-38.9 122.7 L-36.8 119.6 L-34.8 115.5 L-32.6 110.7 L-30.0 105.4 L-27.0 99.7 L-23.7 93.6 L-20.1 87.2 L-16.3 80.6 L-12.4 73.8 L-8.4 66.8 L-4.8 59.7 L-1.7 52.5 L1.6 45.6 L5.1 39.3 L8.9 33.5 L12.5 27.9 L15.2 22.6 L17.3 17.6 L18.9 13.4 L20.5 10.2 L18.6 9.3 L17.0 12.6 L15.3 16.8 L13.2 21.6 L10.4 26.7 L6.8 32.1 L3.0 38.0 L-0.6 44.5 L-3.9 51.5 L-7.2 58.6 L-10.7 65.6 L-14.6 72.5 L-18.5 79.3 L-22.3 85.9 L-25.8 92.4 L-29.1 98.5 L-32.1 104.4 L-34.6 109.8 L-36.8 114.5 L-38.8 118.5 L-40.7 121.5Z" fill="#93db2e"/><path d="M-33.3 122.3 L-31.1 119.3 L-28.4 115.6 L-25.9 110.9 L-23.1 105.7 L-20.0 99.9 L-16.9 93.6 L-13.9 86.9 L-10.3 80.3 L-6.0 73.8 L-1.9 66.9 L1.7 59.7 L5.1 52.7 L8.6 45.9 L11.9 39.3 L15.0 33.1 L18.2 27.6 L21.6 22.7 L24.3 18.0 L25.9 13.6 L27.2 10.2 L25.1 9.4 L23.9 12.9 L22.2 17.0 L19.6 21.4 L16.2 26.3 L12.8 31.9 L9.6 38.2 L6.3 44.7 L2.7 51.5 L-0.5 58.6 L-4.1 65.7 L-8.3 72.3 L-12.6 78.9 L-16.2 85.8 L-19.3 92.5 L-22.2 98.8 L-25.2 104.6 L-27.9 109.8 L-30.4 114.3 L-32.8 118.1 L-34.9 121.1Z" fill="#93db2e"/><path d="M-26.2 122.4 L-24.4 119.3 L-22.2 115.4 L-19.4 110.9 L-16.3 105.9 L-13.2 100.0 L-10.3 93.7 L-7.0 87.1 L-3.4 80.4 L0.3 73.5 L3.8 66.4 L7.3 59.3 L11.3 52.6 L15.4 46.2 L19.0 39.7 L22.2 33.5 L25.2 27.8 L28.1 22.6 L30.5 17.8 L32.2 13.5 L33.6 10.2 L31.5 9.4 L30.2 12.8 L28.5 16.9 L26.1 21.5 L23.1 26.6 L20.0 32.3 L16.8 38.5 L13.1 44.8 L9.1 51.3 L5.1 58.1 L1.3 65.1 L-2.2 72.3 L-5.7 79.2 L-9.3 86.0 L-12.5 92.6 L-15.4 99.0 L-18.3 104.7 L-21.3 109.8 L-24.1 114.3 L-26.3 118.2 L-28.0 121.5Z" fill="#93db2e"/><path d="M-19.1 122.7 L-17.6 119.4 L-15.5 115.5 L-13.0 110.8 L-10.6 105.3 L-7.8 99.5 L-4.3 93.6 L-0.4 87.3 L3.3 80.6 L7.1 73.8 L11.2 66.9 L14.8 59.8 L18.1 52.6 L21.2 45.7 L24.8 39.3 L28.1 33.2 L31.1 27.4 L34.1 22.4 L37.1 18.0 L39.3 14.0 L40.7 10.5 L38.7 9.7 L37.3 13.0 L35.2 16.8 L32.1 21.1 L29.0 26.2 L26.0 32.0 L22.6 38.1 L19.1 44.6 L15.7 51.5 L12.6 58.7 L8.8 65.6 L4.8 72.4 L1.0 79.3 L-2.6 86.0 L-6.5 92.3 L-10.0 98.3 L-12.7 104.3 L-15.0 109.8 L-17.4 114.5 L-19.5 118.4 L-21.1 121.8Z" fill="#93db2e"/><path d="M-13.3 122.4 L-11.5 119.3 L-9.2 115.4 L-6.4 110.9 L-3.2 105.9 L-0.4 99.9 L2.4 93.5 L5.6 87.0 L9.4 80.4 L13.2 73.5 L17.1 66.6 L21.0 59.8 L25.0 53.0 L28.7 46.2 L31.7 39.4 L34.4 33.0 L37.5 27.4 L40.5 22.3 L43.1 17.7 L45.3 13.8 L47.2 10.7 L45.5 9.6 L43.4 12.7 L41.2 16.6 L38.5 21.1 L35.3 26.2 L32.3 32.0 L29.4 38.4 L26.3 45.0 L22.8 51.7 L18.8 58.4 L14.8 65.4 L11.1 72.3 L7.1 79.0 L3.3 85.7 L0.1 92.4 L-2.6 98.9 L-5.4 104.7 L-8.3 109.8 L-11.1 114.3 L-13.2 118.2 L-15.1 121.4Z" fill="#93db2e"/><path d="M-6.1 122.6 L-4.8 119.2 L-2.9 115.2 L-0.4 110.6 L2.3 105.3 L5.2 99.5 L8.7 93.5 L12.6 87.3 L16.5 80.7 L20.2 73.7 L23.9 66.8 L27.8 59.8 L31.5 52.9 L34.5 45.8 L37.7 39.2 L41.0 33.2 L44.2 27.5 L46.9 22.2 L49.3 17.5 L51.7 13.8 L53.8 10.9 L52.2 9.7 L50.0 12.6 L47.4 16.5 L44.9 21.1 L42.1 26.3 L38.8 31.9 L35.5 38.1 L32.4 44.8 L29.1 51.7 L25.6 58.6 L21.6 65.5 L17.9 72.6 L14.3 79.5 L10.5 86.0 L6.5 92.3 L3.1 98.4 L0.3 104.3 L-2.4 109.6 L-5.0 114.1 L-6.9 118.3 L-8.2 121.8Z" fill="#93db2e"/><path d="M0.2 122.7 L2.0 119.5 L4.3 115.6 L6.7 110.8 L9.0 105.4 L11.9 99.6 L15.3 93.5 L18.7 87.0 L22.2 80.2 L26.2 73.6 L30.3 66.8 L34.2 59.8 L37.8 52.9 L41.5 46.2 L45.1 39.7 L48.1 33.4 L50.6 27.4 L53.4 22.2 L56.0 17.6 L57.8 13.5 L59.5 10.2 L57.6 9.3 L55.9 12.5 L53.9 16.5 L51.3 21.0 L48.6 26.4 L45.8 32.3 L42.9 38.6 L39.3 45.0 L35.5 51.6 L32.0 58.6 L28.2 65.5 L23.9 72.2 L19.9 79.0 L16.5 85.9 L13.2 92.4 L9.8 98.5 L6.8 104.4 L4.5 109.9 L2.4 114.6 L0.1 118.4 L-1.7 121.6Z" fill="#93db2e"/><path d="M7.0 122.7 L8.5 119.4 L10.2 115.2 L12.5 110.5 L15.3 105.3 L18.5 99.7 L21.9 93.6 L25.3 87.1 L29.0 80.4 L33.0 73.7 L37.2 66.9 L41.0 59.9 L44.5 52.9 L47.6 45.9 L50.8 39.3 L54.0 33.1 L57.1 27.4 L60.0 22.3 L62.5 17.6 L64.7 13.7 L66.5 10.6 L64.8 9.5 L62.7 12.5 L60.4 16.5 L57.9 21.1 L55.1 26.3 L51.8 31.9 L48.6 38.2 L45.4 44.8 L42.1 51.8 L38.7 58.8 L34.8 65.6 L30.8 72.4 L26.9 79.2 L23.2 85.9 L19.6 92.4 L16.3 98.5 L13.2 104.2 L10.5 109.5 L8.3 114.4 L6.6 118.6 L5.2 121.9Z" fill="#93db2e"/><path d="M13.6 122.7 L15.0 119.4 L16.8 115.2 L19.1 110.6 L22.0 105.4 L25.1 99.7 L28.5 93.7 L32.4 87.5 L36.3 80.8 L39.6 73.6 L42.8 66.3 L46.3 59.4 L50.4 52.7 L54.4 46.1 L57.9 39.7 L61.1 33.4 L64.2 27.7 L66.7 22.3 L68.7 17.4 L70.7 13.5 L72.9 10.7 L71.3 9.4 L68.9 12.4 L66.7 16.5 L64.5 21.3 L61.9 26.6 L59.0 32.3 L55.7 38.4 L52.2 44.9 L48.2 51.4 L44.1 58.1 L40.3 65.2 L37.2 72.5 L33.9 79.6 L30.2 86.1 L26.4 92.5 L22.9 98.5 L19.8 104.2 L17.0 109.5 L14.6 114.3 L13.0 118.5 L11.6 121.9Z" fill="#93db2e"/><path d="M19.7 122.6 L21.5 119.4 L23.1 115.1 L25.4 110.5 L28.2 105.3 L31.5 99.7 L34.9 93.6 L38.4 87.2 L42.4 80.7 L46.5 73.9 L50.1 66.8 L53.6 59.8 L57.4 52.9 L60.8 46.0 L63.8 39.2 L66.8 33.0 L70.1 27.5 L73.1 22.3 L75.4 17.6 L77.6 13.8 L79.7 10.8 L78.0 9.6 L75.8 12.5 L73.4 16.5 L70.9 21.1 L68.0 26.2 L64.7 31.9 L61.6 38.2 L58.6 44.9 L55.0 51.6 L51.2 58.5 L47.7 65.6 L44.1 72.6 L40.3 79.4 L36.1 85.8 L32.6 92.3 L29.5 98.6 L26.2 104.2 L23.2 109.4 L21.2 114.3 L19.4 118.4 L17.9 121.7Z" fill="#93db2e"/><path d="M25.9 122.7 L28.2 119.7 L30.3 115.5 L32.3 110.6 L34.9 105.4 L38.0 99.7 L41.4 93.6 L45.0 87.2 L49.0 80.7 L52.9 73.9 L56.5 66.7 L59.6 59.4 L63.0 52.4 L66.9 46.0 L71.0 39.8 L74.4 33.6 L77.1 27.6 L79.6 22.3 L82.0 17.6 L84.0 13.6 L85.6 10.3 L83.9 9.4 L82.1 12.6 L80.0 16.5 L77.5 21.2 L75.0 26.6 L72.2 32.4 L68.8 38.4 L64.7 44.5 L60.6 51.1 L57.2 58.3 L54.0 65.6 L50.5 72.6 L46.6 79.3 L42.8 86.0 L39.2 92.4 L35.8 98.5 L32.7 104.2 L30.3 109.7 L28.3 114.6 L26.3 118.5 L24.2 121.3Z" fill="#93db2e"/><path d="M32.3 122.4 L34.1 119.2 L35.9 115.1 L38.3 110.5 L41.4 105.5 L44.8 99.9 L48.1 93.7 L51.6 87.3 L55.6 80.8 L59.5 73.9 L63.0 66.7 L66.4 59.6 L70.1 52.7 L73.7 45.9 L76.7 39.2 L79.7 33.0 L83.2 27.5 L86.2 22.4 L88.5 17.6 L90.7 13.8 L92.7 10.8 L91.1 9.7 L88.9 12.6 L86.5 16.5 L84.0 21.2 L81.0 26.2 L77.7 31.9 L74.5 38.1 L71.3 44.8 L67.9 51.5 L64.1 58.4 L60.6 65.6 L57.2 72.7 L53.4 79.5 L49.5 86.1 L46.0 92.5 L42.7 98.7 L39.3 104.2 L36.2 109.3 L34.0 114.2 L32.1 118.2 L30.4 121.4Z" fill="#93db2e"/><path d="M39.1 122.7 L41.0 119.5 L43.2 115.5 L45.4 110.7 L47.8 105.3 L50.8 99.6 L54.4 93.6 L57.7 87.0 L61.3 80.3 L65.2 73.6 L69.5 66.8 L73.2 59.8 L76.8 52.8 L80.5 46.2 L84.1 39.8 L87.2 33.4 L89.8 27.4 L92.4 22.2 L95.0 17.6 L97.0 13.5 L98.3 10.1 L96.5 9.3 L94.9 12.5 L93.0 16.5 L90.5 21.2 L87.7 26.4 L84.9 32.4 L82.0 38.6 L78.3 45.0 L74.6 51.6 L70.9 58.6 L67.1 65.5 L63.0 72.3 L58.9 79.0 L55.4 85.8 L52.1 92.4 L48.8 98.5 L45.7 104.3 L43.2 109.7 L41.3 114.6 L39.2 118.5 L37.4 121.6Z" fill="#93db2e"/><path d="M44.8 122.3 L46.8 119.2 L49.3 115.4 L51.9 110.8 L54.7 105.6 L58.2 100.1 L61.6 94.0 L64.8 87.3 L68.0 80.3 L71.5 73.4 L75.4 66.5 L79.0 59.4 L82.6 52.5 L86.6 46.0 L90.5 39.8 L93.9 33.6 L96.7 27.7 L99.3 22.4 L101.8 17.7 L103.7 13.6 L104.9 10.1 L103.0 9.4 L101.6 12.7 L99.8 16.7 L97.3 21.4 L94.6 26.6 L91.7 32.5 L88.4 38.5 L84.4 44.7 L80.5 51.3 L76.8 58.3 L73.1 65.3 L69.3 72.2 L65.6 79.2 L62.5 86.2 L59.4 92.8 L56.1 98.9 L52.8 104.5 L49.9 109.7 L47.5 114.3 L45.0 118.1 L43.0 121.1Z" fill="#93db2e"/><path d="M51.5 122.3 L53.4 119.2 L55.6 115.3 L58.2 110.7 L61.4 105.7 L64.8 100.1 L68.1 93.9 L71.1 87.1 L74.2 80.2 L77.9 73.4 L82.0 66.6 L85.9 59.7 L89.7 52.8 L93.4 46.2 L97.0 39.7 L100.2 33.4 L102.7 27.4 L105.1 22.0 L107.6 17.5 L110.2 13.8 L112.2 10.8 L110.5 9.6 L108.5 12.6 L105.8 16.3 L103.1 21.0 L100.6 26.5 L98.0 32.4 L94.8 38.5 L91.2 44.9 L87.5 51.6 L83.7 58.4 L79.7 65.2 L75.6 72.1 L71.9 79.1 L68.8 86.1 L65.8 92.8 L62.6 98.9 L59.2 104.4 L56.3 109.6 L53.8 114.2 L51.5 118.1 L49.6 121.2Z" fill="#93db2e"/><path d="M59.0 122.6 L60.2 119.1 L61.8 115.0 L64.4 110.6 L67.7 105.6 L71.1 100.1 L74.4 93.8 L77.7 87.2 L81.1 80.4 L84.7 73.5 L88.3 66.4 L92.1 59.5 L96.1 52.8 L100.1 46.2 L103.5 39.7 L106.5 33.3 L109.0 27.3 L111.6 22.1 L114.5 17.8 L117.1 14.0 L119.0 10.9 L117.1 9.7 L115.3 12.8 L112.5 16.4 L109.6 20.9 L106.8 26.3 L104.3 32.3 L101.4 38.6 L97.8 44.9 L93.9 51.5 L90.0 58.3 L86.1 65.3 L82.4 72.3 L78.8 79.2 L75.4 86.1 L72.3 92.8 L69.0 98.8 L65.6 104.3 L62.4 109.4 L59.8 114.1 L58.0 118.3 L56.9 121.9Z" fill="#93db2e"/><path d="M64.9 122.4 L66.3 119.0 L68.4 115.2 L71.2 110.8 L74.3 105.6 L77.5 100.0 L80.8 93.8 L84.3 87.3 L87.6 80.4 L91.0 73.3 L94.8 66.5 L99.0 59.8 L103.2 53.1 L106.6 46.1 L109.5 39.3 L112.4 33.1 L115.5 27.4 L118.6 22.4 L121.3 17.8 L123.5 13.9 L125.1 10.6 L123.4 9.7 L121.6 12.8 L119.5 16.8 L116.7 21.2 L113.5 26.2 L110.2 31.9 L107.2 38.3 L104.3 45.1 L100.9 51.8 L96.8 58.4 L92.4 65.1 L88.5 72.1 L85.2 79.2 L81.9 86.1 L78.7 92.7 L75.3 98.8 L72.3 104.5 L69.3 109.6 L66.5 114.1 L64.3 118.1 L62.9 121.6Z" fill="#93db2e"/><path d="M71.7 122.5 L73.1 119.2 L75.2 115.3 L77.6 110.6 L80.4 105.4 L83.5 99.7 L86.9 93.7 L90.9 87.5 L94.8 80.8 L98.4 73.8 L101.6 66.5 L104.9 59.3 L108.7 52.5 L112.4 45.9 L116.1 39.5 L119.4 33.3 L122.5 27.7 L125.6 22.6 L128.2 17.9 L129.9 13.7 L131.1 10.1 L129.1 9.5 L128.0 12.9 L126.1 16.9 L123.6 21.4 L120.6 26.5 L117.3 32.2 L113.8 38.2 L110.3 44.7 L106.4 51.2 L102.7 58.2 L99.3 65.4 L96.0 72.7 L92.6 79.6 L88.6 86.1 L84.9 92.4 L81.3 98.5 L78.2 104.2 L75.6 109.5 L73.0 114.2 L71.2 118.3 L69.8 121.8Z" fill="#93db2e"/><path d="M78.1 122.5 L79.6 119.1 L81.3 115.1 L83.9 110.6 L87.3 105.7 L90.9 100.2 L93.9 93.8 L96.8 87.0 L100.3 80.3 L104.2 73.5 L108.0 66.6 L111.9 59.7 L115.9 52.9 L119.7 46.2 L122.6 39.4 L125.4 33.0 L128.3 27.3 L131.8 22.5 L134.6 18.0 L136.6 13.8 L138.0 10.4 L136.1 9.6 L134.6 12.9 L132.7 16.9 L129.7 21.2 L126.4 26.2 L123.1 31.9 L120.4 38.4 L117.3 45.0 L113.7 51.7 L109.8 58.4 L105.8 65.3 L101.9 72.2 L98.1 79.1 L94.7 86.0 L91.7 92.8 L88.7 99.0 L85.4 104.5 L82.0 109.4 L79.3 114.0 L77.6 118.3 L76.3 121.8Z" fill="#93db2e"/><path d="M83.9 122.3 L85.9 119.3 L88.7 115.6 L91.3 111.0 L94.0 105.7 L97.0 99.9 L100.4 93.8 L103.7 87.3 L107.0 80.3 L110.3 73.3 L114.1 66.4 L118.1 59.6 L122.1 52.8 L125.7 46.0 L129.2 39.6 L132.8 33.6 L136.0 27.9 L138.6 22.5 L140.7 17.6 L142.3 13.4 L144.1 10.3 L142.2 9.3 L140.5 12.6 L138.5 16.7 L136.6 21.6 L133.9 26.8 L130.6 32.3 L127.1 38.4 L123.6 44.9 L119.8 51.5 L115.9 58.2 L111.7 65.0 L108.1 72.1 L104.7 79.3 L101.5 86.1 L98.0 92.6 L94.8 98.8 L91.9 104.6 L89.3 109.9 L86.7 114.4 L84.3 118.2 L82.2 121.2Z" fill="#93db2e"/><path d="M91.0 122.4 L92.4 119.0 L94.3 115.0 L96.8 110.5 L99.9 105.5 L103.3 99.9 L106.6 93.7 L110.2 87.3 L113.9 80.6 L117.8 73.9 L121.7 66.9 L125.3 59.8 L128.6 52.7 L131.9 45.8 L135.2 39.3 L138.6 33.2 L141.7 27.5 L144.4 22.2 L146.8 17.6 L149.1 13.7 L151.2 10.8 L149.4 9.5 L147.2 12.5 L144.8 16.4 L142.3 21.1 L139.5 26.3 L136.5 32.0 L133.0 38.1 L129.6 44.6 L126.3 51.6 L123.0 58.7 L119.5 65.7 L115.6 72.6 L111.7 79.4 L107.9 86.1 L104.5 92.6 L101.1 98.6 L97.9 104.2 L94.8 109.3 L92.2 114.0 L90.4 118.2 L89.0 121.6Z" fill="#93db2e"/><path d="M97.2 122.4 L99.2 119.4 L101.5 115.5 L104.1 110.9 L106.9 105.6 L109.8 99.8 L112.9 93.5 L116.3 87.1 L119.9 80.4 L124.0 73.7 L128.0 66.8 L131.8 59.8 L135.2 52.7 L138.3 45.7 L141.6 39.2 L145.2 33.4 L148.8 27.9 L151.8 22.7 L153.9 17.7 L155.5 13.5 L156.9 10.1 L154.9 9.3 L153.4 12.6 L151.9 16.9 L149.8 21.6 L146.7 26.6 L143.1 32.0 L139.4 38.0 L136.0 44.6 L132.7 51.5 L129.4 58.6 L125.8 65.6 L121.7 72.4 L117.8 79.2 L114.0 85.8 L110.7 92.4 L107.6 98.7 L104.8 104.5 L102.1 109.8 L99.5 114.4 L97.2 118.2 L95.4 121.3Z" fill="#93db2e"/><path d="M104.1 122.4 L105.3 119.0 L107.3 115.1 L109.9 110.6 L113.2 105.7 L116.6 100.0 L119.9 93.9 L123.3 87.4 L126.9 80.6 L130.5 73.6 L133.9 66.4 L137.4 59.3 L141.1 52.5 L145.3 46.1 L149.0 39.7 L152.3 33.5 L155.1 27.6 L157.8 22.4 L160.2 17.7 L162.0 13.5 L163.4 10.1 L161.5 9.3 L160.0 12.6 L158.2 16.7 L155.8 21.3 L153.1 26.6 L150.1 32.4 L146.9 38.5 L143.0 44.7 L139.0 51.3 L134.9 58.1 L131.4 65.2 L128.1 72.4 L124.7 79.4 L121.0 86.1 L117.6 92.7 L114.5 98.9 L111.2 104.4 L108.0 109.4 L105.2 114.0 L103.4 118.2 L102.1 121.7Z" fill="#93db2e"/><path d="M110.8 122.7 L112.8 119.6 L114.8 115.5 L117.0 110.8 L119.7 105.5 L122.8 99.8 L125.8 93.5 L129.0 86.9 L132.6 80.2 L136.7 73.6 L140.8 66.8 L144.7 59.8 L148.2 52.8 L152.0 46.2 L155.6 39.7 L158.7 33.4 L161.3 27.4 L163.8 22.1 L166.3 17.5 L168.4 13.6 L170.2 10.4 L168.3 9.4 L166.6 12.6 L164.2 16.4 L161.7 21.0 L159.1 26.5 L156.5 32.4 L153.4 38.6 L149.8 44.9 L146.1 51.6 L142.3 58.5 L138.6 65.5 L134.5 72.2 L130.4 79.0 L126.8 85.8 L123.6 92.4 L120.6 98.7 L117.5 104.4 L114.8 109.7 L112.6 114.5 L110.9 118.6 L109.1 121.7Z" fill="#93db2e"/><path d="M117.4 122.5 L118.6 119.1 L120.4 115.1 L123.1 110.6 L125.9 105.4 L128.9 99.7 L132.5 93.8 L136.5 87.5 L140.1 80.7 L143.6 73.7 L147.3 66.7 L151.0 59.6 L154.2 52.5 L157.5 45.6 L161.4 39.4 L164.9 33.4 L168.0 27.6 L171.0 22.6 L173.6 18.0 L175.7 13.8 L176.9 10.3 L174.9 9.6 L173.7 13.0 L171.8 17.0 L168.9 21.3 L165.8 26.4 L162.8 32.2 L159.1 38.1 L155.4 44.5 L151.8 51.3 L148.6 58.5 L145.0 65.5 L141.3 72.5 L137.9 79.5 L134.4 86.3 L130.5 92.5 L126.7 98.4 L123.7 104.2 L121.0 109.5 L118.5 114.1 L116.5 118.3 L115.4 121.9Z" fill="#93db2e"/><path d="M123.7 122.7 L125.4 119.4 L127.6 115.5 L129.8 110.6 L132.2 105.2 L135.2 99.6 L138.9 93.7 L142.7 87.3 L146.4 80.6 L150.1 73.7 L154.0 66.8 L157.9 59.9 L161.3 52.8 L164.4 45.7 L167.6 39.2 L170.9 33.1 L174.3 27.5 L177.2 22.4 L179.6 17.7 L181.9 13.9 L183.9 10.9 L182.2 9.7 L180.1 12.8 L177.8 16.7 L175.1 21.2 L172.2 26.4 L168.9 31.9 L165.4 38.0 L162.1 44.7 L158.9 51.7 L155.5 58.6 L151.7 65.6 L147.8 72.4 L144.1 79.4 L140.5 86.0 L136.7 92.3 L133.0 98.3 L130.0 104.2 L127.6 109.6 L125.5 114.4 L123.6 118.5 L121.8 121.6Z" fill="#93db2e"/><path d="M130.4 122.6 L131.7 119.2 L133.4 115.1 L135.8 110.5 L138.8 105.4 L142.2 99.8 L145.6 93.7 L149.1 87.3 L153.0 80.7 L156.8 73.8 L160.5 66.8 L164.0 59.6 L167.1 52.4 L170.5 45.6 L174.2 39.3 L177.8 33.4 L181.1 27.7 L184.1 22.5 L186.4 17.8 L188.5 13.8 L190.2 10.6 L188.3 9.6 L186.6 12.8 L184.4 16.8 L181.9 21.4 L179.1 26.6 L175.8 32.1 L172.0 38.0 L168.4 44.5 L164.9 51.4 L161.6 58.5 L158.3 65.7 L154.6 72.6 L150.7 79.4 L147.0 86.1 L143.4 92.5 L140.0 98.6 L136.9 104.3 L133.9 109.4 L131.4 114.1 L129.6 118.3 L128.3 121.8Z" fill="#93db2e"/><path d="M137.1 122.8 L138.6 119.4 L140.2 115.1 L142.3 110.5 L145.4 105.4 L148.8 99.9 L152.2 93.8 L155.8 87.3 L159.5 80.6 L163.1 73.7 L166.5 66.5 L169.8 59.3 L173.6 52.6 L177.8 46.2 L181.7 39.8 L184.8 33.5 L187.4 27.5 L189.8 22.1 L192.3 17.5 L194.6 13.7 L196.5 10.6 L194.5 9.4 L192.7 12.6 L190.5 16.5 L187.8 21.1 L185.2 26.5 L182.6 32.5 L179.6 38.6 L175.6 44.8 L171.5 51.2 L167.6 58.1 L164.1 65.3 L160.8 72.5 L157.2 79.4 L153.6 86.2 L150.1 92.6 L146.6 98.6 L143.2 104.2 L140.3 109.4 L138.1 114.3 L136.6 118.6 L135.1 121.9Z" fill="#93db2e"/></g><g class="sk-line"><path d="M30.0 20.6 L32.7 20.7 L36.5 20.5 L40.9 20.4 L45.7 20.4 L50.7 20.3 L55.6 20.3 L60.1 20.5 L63.9 20.9 L67.2 21.1 L70.5 21.6 L73.4 22.3 L76.2 22.8 L78.7 23.7 L81.0 24.5 L82.9 25.5 L84.4 26.7 L85.4 28.0 L86.2 29.3 L86.7 30.8 L86.7 32.5 L86.8 34.2 L86.4 35.9 L86.1 37.7 L85.6 39.3 L84.9 40.7 L83.6 42.3 L82.1 44.1 L80.4 46.0 L78.7 48.0 L77.2 50.1 L76.0 52.6 L75.9 55.6 L77.2 58.3 L79.2 60.2 L81.5 61.3 L83.8 62.1 L85.9 63.0 L87.8 63.7 L89.3 64.6 L90.1 65.5 L91.0 66.6 L91.7 68.2 L92.3 70.0 L92.6 71.9 L92.7 73.9 L93.0 75.8 L92.8 77.8 L92.6 79.8 L92.1 81.7 L91.6 83.8 L90.9 86.0 L90.0 88.1 L89.1 90.1 L87.8 91.8 L86.6 93.4 L85.0 94.6 L83.3 95.7 L81.6 96.5 L79.6 97.2 L77.4 97.8 L75.0 98.4 L72.2 98.7 L69.2 98.9 L65.9 99.4 L62.0 99.4 L57.3 99.7 L52.3 99.9 L47.0 99.8 L41.9 99.6 L37.2 99.6 L33.3 99.1 L30.3 98.7 L27.8 98.6 L25.7 99.2 L24.4 100.0 L24.1 103.4 L27.3 104.1 L28.8 101.5 L29.0 98.9 L28.8 94.9 L28.6 88.8 L28.5 80.4 L28.3 70.6 L28.1 60.0 L28.0 49.4 L27.9 39.5 L27.8 31.1 L27.7 25.0 L27.8 21.3 L28.1 19.1 L28.3 18.5 L28.4 18.7 L28.7 18.8 L29.4 19.1 L30.1 19.5 L31.6 16.9 L29.3 18.9 L31.0 16.6 L31.1 16.6 L30.2 15.8 L28.3 15.2 L26.1 16.3 L25.0 18.3 L24.6 21.0 L24.4 25.0 L24.3 31.1 L24.2 39.5 L24.3 49.4 L24.4 60.0 L24.5 70.7 L24.7 80.5 L25.0 88.9 L25.3 95.0 L25.3 98.8 L25.1 101.0 L26.2 100.6 L26.2 100.2 L26.5 103.0 L27.1 102.6 L28.0 102.4 L29.8 102.7 L32.9 103.1 L37.0 103.3 L41.8 103.7 L47.0 103.8 L52.3 103.7 L57.4 103.8 L62.2 103.7 L66.2 103.2 L69.6 103.2 L72.7 102.8 L75.6 102.3 L78.3 102.0 L80.8 101.4 L83.2 100.5 L85.5 99.5 L87.6 98.1 L89.5 96.3 L91.3 94.4 L92.6 92.1 L93.9 89.8 L94.8 87.4 L95.6 85.0 L96.3 82.7 L96.7 80.5 L97.0 78.2 L97.0 75.9 L97.1 73.5 L96.7 71.2 L96.1 68.9 L95.5 66.8 L94.5 64.8 L93.4 62.8 L91.7 61.3 L89.6 60.2 L87.4 59.2 L85.2 58.5 L83.1 57.6 L81.5 56.7 L80.3 55.9 L79.8 54.8 L80.0 53.6 L80.6 52.1 L81.9 50.4 L83.4 48.6 L85.1 46.7 L86.8 44.8 L88.2 42.7 L89.1 40.7 L89.8 38.6 L90.3 36.6 L90.5 34.5 L90.7 32.3 L90.3 30.1 L89.7 27.9 L88.6 25.7 L86.8 24.0 L84.8 22.5 L82.5 21.3 L80.0 20.1 L77.1 19.4 L74.2 18.6 L71.0 18.3 L67.7 17.8 L64.2 17.3 L60.2 17.1 L55.6 17.0 L50.7 17.1 L45.7 17.1 L40.8 17.2 L36.4 17.4 L32.7 17.3 L30.0 17.5Z" fill="#eaffcc"/><path d="M31.4 16.8 L34.1 16.8 L37.8 16.9 L42.2 17.0 L47.1 17.1 L52.1 17.3 L57.0 17.6 L61.5 18.1 L65.3 18.7 L68.7 19.3 L71.9 20.0 L74.9 20.7 L77.7 21.5 L80.2 22.4 L82.4 23.3 L84.3 24.3 L85.9 25.5 L87.0 26.7 L87.7 28.2 L88.2 29.8 L88.3 31.4 L88.2 33.2 L88.0 35.0 L87.6 36.7 L87.1 38.4 L86.4 39.8 L85.3 41.5 L83.9 43.4 L82.4 45.5 L80.9 47.6 L79.8 49.8 L79.1 52.0 L79.3 54.2 L80.5 55.9 L82.2 56.9 L84.2 57.6 L86.3 58.3 L88.5 59.1 L90.6 60.0 L92.4 61.2 L93.8 62.6 L94.6 64.4 L95.2 66.3 L95.6 68.3 L95.8 70.4 L95.9 72.6 L95.8 74.7 L95.6 76.8 L95.3 78.9 L94.8 81.0 L94.3 83.1 L93.6 85.4 L92.8 87.6 L91.8 89.7 L90.5 91.6 L89.0 93.3 L87.3 94.7 L85.4 95.6 L83.4 96.4 L81.3 96.8 L79.0 97.1 L76.4 97.3 L73.6 97.5 L70.6 97.6 L67.2 97.7 L63.3 97.9 L58.7 98.1 L53.6 98.4 L48.4 98.5 L43.3 98.8 L38.6 98.9 L34.5 98.8 L31.4 98.8 L29.2 99.0 L27.7 99.8 L27.0 100.7 L27.3 100.8 L27.5 100.9 L27.6 100.1 L27.7 97.8 L27.7 93.9 L27.4 87.8 L27.3 79.4 L27.1 69.5 L27.0 58.9 L26.8 48.3 L26.8 38.4 L26.8 30.0 L26.9 23.9 L27.2 19.9 L27.6 17.5 L28.4 16.1 L29.8 15.7 L30.8 16.2 L31.3 16.9 L31.4 17.2 L31.4 17.0 L32.3 17.4 L32.4 17.0 L32.1 16.3 L31.4 15.4 L29.9 14.7 L27.7 15.3 L26.6 17.1 L26.1 19.8 L25.8 23.8 L25.8 30.0 L25.7 38.4 L25.8 48.3 L25.8 58.9 L25.9 69.5 L26.1 79.4 L26.3 87.8 L26.4 93.9 L26.6 97.7 L26.5 100.0 L26.3 101.2 L27.4 102.0 L28.0 101.3 L28.4 100.8 L29.5 100.3 L31.4 100.1 L34.5 100.2 L38.6 100.1 L43.3 100.0 L48.4 99.9 L53.7 99.7 L58.7 99.5 L63.4 99.3 L67.3 99.1 L70.6 98.9 L73.7 98.8 L76.5 98.7 L79.1 98.5 L81.5 98.2 L83.8 97.7 L86.0 96.9 L88.0 95.8 L89.9 94.3 L91.6 92.5 L92.9 90.4 L94.0 88.2 L95.0 85.8 L95.7 83.5 L96.3 81.3 L96.6 79.1 L97.0 77.0 L97.2 74.8 L97.2 72.6 L97.2 70.3 L97.0 68.1 L96.6 65.9 L95.9 63.9 L94.9 61.9 L93.3 60.1 L91.3 58.8 L89.0 57.8 L86.8 57.0 L84.6 56.4 L82.8 55.7 L81.4 54.9 L80.6 53.8 L80.4 52.2 L81.0 50.3 L82.1 48.3 L83.4 46.2 L85.0 44.2 L86.4 42.3 L87.6 40.5 L88.3 38.8 L88.8 37.0 L89.2 35.2 L89.5 33.3 L89.6 31.4 L89.4 29.5 L88.9 27.7 L88.0 26.1 L86.7 24.6 L85.0 23.3 L82.9 22.2 L80.6 21.2 L78.0 20.4 L75.2 19.6 L72.1 18.9 L68.9 18.2 L65.5 17.5 L61.6 17.0 L57.1 16.6 L52.1 16.2 L47.1 16.1 L42.2 15.9 L37.8 15.9 L34.1 15.8 L31.4 15.9Z" fill="#eaffcc" opacity=".6"/><path d="M41.1 34.2 L41.9 34.2 L43.0 34.0 L44.2 33.9 L45.6 33.7 L47.1 33.6 L48.6 33.4 L50.3 33.2 L51.9 33.0 L53.6 32.8 L55.2 32.8 L56.8 32.7 L58.3 32.5 L59.7 32.7 L60.9 32.7 L61.9 32.7 L62.8 33.0 L63.6 33.2 L64.3 33.5 L65.0 33.9 L65.7 34.0 L66.3 34.4 L66.8 34.7 L67.2 35.2 L67.6 35.6 L67.9 36.0 L68.3 36.4 L68.6 36.8 L68.9 37.2 L69.2 37.5 L69.4 37.9 L69.6 38.3 L69.7 38.7 L69.8 39.1 L69.9 39.5 L70.1 39.9 L70.1 40.3 L70.0 40.8 L70.1 41.2 L70.0 41.7 L70.0 42.1 L69.9 42.5 L69.8 42.9 L69.7 43.3 L69.5 43.7 L69.4 44.1 L69.1 44.4 L68.8 44.8 L68.5 45.2 L68.2 45.6 L68.0 46.1 L67.6 46.4 L67.1 46.7 L66.7 47.1 L66.2 47.6 L65.6 47.8 L65.0 48.1 L64.3 48.4 L63.6 48.7 L62.8 48.8 L61.9 49.0 L60.8 49.3 L59.6 49.4 L58.2 49.4 L56.7 49.5 L55.1 49.6 L53.4 49.7 L51.8 49.7 L50.2 49.7 L48.6 49.6 L47.1 49.5 L45.8 49.2 L44.6 49.0 L43.6 48.7 L42.9 48.5 L42.6 48.2 L42.4 47.9 L42.1 47.5 L41.8 46.7 L41.6 45.7 L41.3 44.5 L41.2 43.2 L41.2 41.7 L41.1 40.3 L41.2 38.8 L41.2 37.4 L41.3 36.0 L41.5 34.7 L41.5 33.6 L41.5 32.7 L41.4 32.0 L38.9 31.9 L38.8 32.6 L38.8 33.5 L38.6 34.5 L38.6 35.8 L38.5 37.2 L38.4 38.7 L38.5 40.2 L38.4 41.8 L38.4 43.3 L38.6 44.8 L38.6 46.2 L38.9 47.5 L39.3 48.7 L39.8 49.7 L40.6 50.5 L41.5 51.0 L42.5 51.6 L43.8 52.0 L45.2 52.4 L46.7 52.5 L48.3 52.7 L50.0 52.8 L51.7 52.9 L53.5 52.9 L55.2 52.9 L56.9 52.8 L58.4 52.7 L59.9 52.5 L61.2 52.4 L62.4 52.4 L63.5 52.2 L64.5 51.8 L65.5 51.6 L66.4 51.3 L67.3 50.9 L68.0 50.3 L68.7 49.9 L69.4 49.4 L69.9 48.8 L70.3 48.2 L70.9 47.7 L71.3 47.2 L71.6 46.7 L72.0 46.2 L72.2 45.7 L72.5 45.1 L72.8 44.5 L73.0 43.9 L73.1 43.3 L73.3 42.7 L73.4 42.0 L73.5 41.3 L73.5 40.7 L73.4 40.0 L73.2 39.4 L73.2 38.7 L73.0 38.1 L72.8 37.5 L72.5 36.9 L72.2 36.4 L71.8 35.9 L71.6 35.3 L71.2 34.8 L70.8 34.3 L70.4 33.8 L69.8 33.3 L69.3 32.8 L68.6 32.4 L67.9 31.9 L67.1 31.5 L66.4 30.9 L65.5 30.6 L64.5 30.3 L63.4 30.1 L62.3 29.9 L61.1 29.7 L59.7 29.6 L58.2 29.8 L56.6 29.8 L55.0 29.9 L53.3 30.1 L51.6 30.3 L49.9 30.4 L48.3 30.7 L46.7 31.0 L45.3 31.2 L43.9 31.3 L42.7 31.5 L41.7 31.5 L40.9 31.6Z" fill="#eaffcc"/><path d="M42.4 32.1 L43.2 32.1 L44.3 32.1 L45.5 32.2 L46.9 32.1 L48.4 31.9 L49.9 31.8 L51.6 31.5 L53.3 31.3 L54.9 31.0 L56.6 30.7 L58.2 30.5 L59.7 30.3 L61.2 30.1 L62.5 30.0 L63.6 30.0 L64.6 30.2 L65.5 30.4 L66.3 30.7 L67.1 31.0 L67.8 31.4 L68.4 31.9 L68.9 32.4 L69.4 32.9 L69.8 33.4 L70.3 33.9 L70.6 34.4 L71.0 34.9 L71.3 35.4 L71.6 35.8 L71.9 36.2 L72.2 36.6 L72.4 37.1 L72.5 37.5 L72.7 38.0 L72.8 38.5 L72.7 39.0 L72.7 39.5 L72.5 40.0 L72.3 40.4 L72.0 40.8 L71.8 41.3 L71.4 41.6 L71.2 42.0 L70.9 42.3 L70.6 42.6 L70.3 43.0 L70.0 43.4 L69.7 43.9 L69.5 44.3 L69.2 44.8 L68.9 45.3 L68.6 45.8 L68.3 46.4 L67.8 46.9 L67.3 47.3 L66.6 47.7 L66.0 48.1 L65.2 48.4 L64.3 48.7 L63.4 48.9 L62.3 49.0 L61.0 49.2 L59.6 49.3 L58.1 49.6 L56.5 49.8 L54.8 50.0 L53.2 50.3 L51.5 50.5 L49.8 50.6 L48.2 50.7 L46.7 50.7 L45.3 50.6 L44.0 50.5 L42.9 50.1 L41.9 49.4 L41.3 48.6 L40.8 47.5 L40.6 46.3 L40.6 45.0 L40.9 43.7 L41.1 42.3 L41.5 40.8 L41.9 39.3 L42.4 37.9 L42.9 36.5 L43.3 35.2 L43.6 33.9 L43.9 32.8 L44.1 31.8 L44.1 31.0 L43.1 31.0 L43.0 31.7 L42.9 32.6 L42.7 33.7 L42.3 34.9 L41.8 36.2 L41.4 37.6 L41.0 39.0 L40.5 40.5 L40.0 42.0 L39.7 43.5 L39.5 44.9 L39.5 46.4 L39.7 47.8 L40.2 49.2 L41.1 50.3 L42.4 51.1 L43.7 51.6 L45.2 51.9 L46.7 52.0 L48.3 51.9 L49.9 51.8 L51.6 51.6 L53.3 51.5 L55.0 51.3 L56.7 51.1 L58.3 50.9 L59.8 50.7 L61.2 50.5 L62.5 50.3 L63.6 50.1 L64.6 49.9 L65.6 49.7 L66.5 49.3 L67.4 48.9 L68.1 48.4 L68.7 47.8 L69.3 47.2 L69.8 46.7 L70.2 46.1 L70.5 45.5 L70.7 45.0 L70.9 44.5 L71.2 44.1 L71.4 43.8 L71.6 43.5 L71.9 43.2 L72.2 42.9 L72.6 42.5 L72.9 42.1 L73.3 41.6 L73.5 41.0 L73.8 40.4 L74.0 39.8 L74.1 39.1 L74.1 38.4 L74.0 37.8 L73.9 37.1 L73.6 36.5 L73.4 36.0 L73.0 35.5 L72.7 35.0 L72.4 34.6 L72.0 34.1 L71.7 33.6 L71.3 33.1 L70.9 32.6 L70.3 32.1 L69.8 31.5 L69.2 31.0 L68.5 30.4 L67.6 30.0 L66.8 29.6 L65.8 29.2 L64.8 29.0 L63.7 28.9 L62.4 28.9 L61.1 29.0 L59.6 29.1 L58.0 29.4 L56.4 29.7 L54.8 29.9 L53.1 30.2 L51.4 30.5 L49.8 30.7 L48.3 30.9 L46.8 31.0 L45.5 31.1 L44.3 31.2 L43.2 31.2 L42.4 31.1Z" fill="#eaffcc" opacity=".6"/><path d="M40.8 64.3 L41.8 64.5 L43.1 64.8 L44.6 64.8 L46.3 64.9 L48.1 64.8 L50.0 64.9 L51.9 64.8 L53.9 64.6 L55.9 64.5 L57.8 64.5 L59.7 64.4 L61.5 64.5 L63.1 64.5 L64.6 64.5 L65.8 64.7 L66.9 64.9 L67.9 65.1 L69.0 65.3 L69.9 65.5 L70.8 65.6 L71.7 65.7 L72.4 66.0 L73.2 66.1 L73.8 66.3 L74.4 66.4 L74.9 66.7 L75.2 67.1 L75.6 67.4 L75.9 67.8 L76.1 68.3 L76.3 68.8 L76.3 69.4 L76.4 70.1 L76.5 70.8 L76.5 71.7 L76.5 72.5 L76.3 73.4 L76.4 74.3 L76.3 75.1 L76.1 75.9 L76.1 76.7 L75.8 77.4 L75.8 78.0 L75.6 78.5 L75.2 78.9 L75.0 79.4 L74.6 79.7 L74.2 80.1 L73.7 80.4 L73.3 81.0 L72.8 81.4 L72.2 81.8 L71.5 82.2 L70.9 82.7 L70.2 83.1 L69.4 83.5 L68.6 84.1 L67.8 84.6 L66.8 84.9 L65.7 85.2 L64.5 85.5 L63.0 85.7 L61.4 86.0 L59.6 86.1 L57.8 86.3 L55.8 86.5 L53.8 86.5 L51.9 86.5 L49.9 86.4 L48.1 86.5 L46.4 86.3 L45.0 86.0 L43.7 85.7 L42.8 85.3 L42.1 84.8 L41.7 84.3 L41.4 83.4 L41.0 82.3 L41.0 80.9 L41.0 79.3 L41.2 77.5 L41.4 75.7 L41.6 73.8 L41.9 72.0 L42.1 70.1 L42.4 68.3 L42.5 66.7 L42.7 65.2 L42.6 63.8 L42.4 62.8 L39.8 63.2 L39.9 64.1 L39.9 65.1 L40.0 66.5 L39.8 68.1 L39.6 69.8 L39.3 71.6 L39.0 73.4 L38.6 75.3 L38.3 77.2 L38.1 79.1 L38.1 80.9 L38.2 82.6 L38.4 84.3 L39.1 85.7 L40.0 87.0 L41.3 87.9 L42.7 88.5 L44.3 89.0 L46.0 89.2 L47.9 89.4 L49.8 89.7 L51.8 89.7 L53.9 89.6 L55.9 89.6 L58.0 89.5 L60.0 89.5 L61.8 89.1 L63.6 89.0 L65.1 88.6 L66.5 88.3 L67.8 88.0 L69.0 87.5 L70.1 87.0 L71.1 86.6 L72.0 86.0 L72.8 85.5 L73.5 85.0 L74.1 84.4 L74.7 84.0 L75.3 83.5 L76.0 83.2 L76.6 82.7 L77.1 82.0 L77.6 81.4 L78.2 80.8 L78.5 79.9 L78.8 79.0 L79.2 78.2 L79.3 77.2 L79.4 76.3 L79.5 75.4 L79.5 74.5 L79.7 73.6 L79.7 72.7 L79.7 71.8 L79.7 70.9 L79.8 69.9 L79.8 68.9 L79.5 67.9 L79.2 66.9 L78.7 66.1 L78.1 65.3 L77.4 64.5 L76.5 64.1 L75.7 63.7 L74.8 63.3 L74.0 63.1 L73.1 62.8 L72.2 62.7 L71.4 62.6 L70.5 62.3 L69.5 62.2 L68.5 62.0 L67.4 61.8 L66.2 61.7 L64.8 61.7 L63.2 61.5 L61.5 61.4 L59.6 61.5 L57.7 61.5 L55.7 61.7 L53.7 61.9 L51.8 62.0 L49.8 62.1 L48.0 62.3 L46.3 62.2 L44.7 62.3 L43.3 62.1 L42.2 62.1 L41.2 61.9Z" fill="#eaffcc"/><path d="M42.4 62.8 L43.4 62.8 L44.6 62.9 L46.0 62.9 L47.6 63.0 L49.4 63.2 L51.3 63.3 L53.2 63.4 L55.2 63.5 L57.2 63.6 L59.2 63.6 L61.1 63.5 L62.9 63.4 L64.6 63.3 L66.1 63.2 L67.4 63.1 L68.6 63.0 L69.7 62.9 L70.7 62.9 L71.6 63.0 L72.5 63.1 L73.3 63.3 L74.0 63.6 L74.7 63.9 L75.4 64.3 L75.9 64.7 L76.5 65.1 L77.0 65.6 L77.5 66.0 L78.0 66.5 L78.5 67.0 L79.0 67.5 L79.4 68.2 L79.8 68.9 L80.2 69.7 L80.4 70.6 L80.5 71.4 L80.6 72.3 L80.5 73.2 L80.3 74.1 L80.0 75.0 L79.6 75.8 L79.2 76.5 L78.7 77.2 L78.2 77.8 L77.7 78.3 L77.3 78.8 L76.7 79.2 L76.2 79.7 L75.8 80.2 L75.3 80.7 L74.8 81.1 L74.3 81.6 L73.6 82.0 L72.9 82.3 L72.2 82.5 L71.3 82.7 L70.4 82.9 L69.4 82.9 L68.3 83.0 L67.2 83.0 L65.8 83.1 L64.3 83.2 L62.6 83.5 L60.8 83.8 L58.9 84.2 L56.9 84.6 L55.0 85.0 L53.1 85.4 L51.2 85.7 L49.3 86.0 L47.6 86.1 L46.0 86.1 L44.6 85.9 L43.4 85.4 L42.5 84.8 L41.8 83.9 L41.3 82.8 L41.0 81.4 L40.8 79.8 L40.8 78.1 L40.8 76.2 L40.8 74.3 L41.0 72.4 L41.0 70.5 L41.1 68.6 L41.2 66.8 L41.3 65.2 L41.3 63.8 L41.3 62.7 L41.3 61.8 L40.4 61.8 L40.3 62.7 L40.3 63.8 L40.2 65.2 L40.2 66.8 L40.1 68.6 L40.0 70.4 L39.8 72.4 L39.8 74.3 L39.7 76.2 L39.7 78.1 L39.7 79.9 L39.9 81.6 L40.2 83.1 L40.8 84.5 L41.7 85.7 L42.9 86.5 L44.3 87.0 L45.9 87.3 L47.6 87.4 L49.5 87.2 L51.4 87.0 L53.3 86.6 L55.3 86.2 L57.2 85.9 L59.1 85.4 L61.0 85.1 L62.8 84.8 L64.4 84.6 L65.9 84.5 L67.2 84.3 L68.4 84.4 L69.5 84.3 L70.6 84.2 L71.6 84.1 L72.5 83.8 L73.4 83.5 L74.2 83.1 L75.0 82.7 L75.7 82.2 L76.2 81.7 L76.8 81.2 L77.3 80.8 L77.8 80.3 L78.2 79.8 L78.7 79.3 L79.3 78.7 L79.9 78.1 L80.4 77.3 L80.9 76.4 L81.3 75.5 L81.6 74.5 L81.9 73.4 L82.0 72.4 L81.9 71.3 L81.7 70.2 L81.4 69.3 L81.0 68.3 L80.5 67.5 L80.0 66.8 L79.4 66.1 L78.9 65.6 L78.3 65.1 L77.8 64.6 L77.3 64.2 L76.7 63.7 L76.0 63.3 L75.4 62.8 L74.6 62.4 L73.7 62.1 L72.8 61.9 L71.8 61.7 L70.7 61.7 L69.6 61.7 L68.5 61.8 L67.3 61.8 L66.0 62.0 L64.5 62.2 L62.8 62.3 L61.0 62.4 L59.2 62.5 L57.2 62.5 L55.3 62.4 L53.3 62.4 L51.3 62.3 L49.5 62.2 L47.7 62.1 L46.1 61.9 L44.6 61.8 L43.4 61.8 L42.4 61.8Z" fill="#eaffcc" opacity=".6"/></g><text x="108" y="82" font-family="Geist, Inter, system-ui, sans-serif" font-weight="600" font-size="58" letter-spacing="-1.16" fill="#eaffcc">Bajet<tspan fill="#c5ff73">Je</tspan></text></svg>